<mxfile host="Electron" modified="2024-07-28T02:40:38.937Z" agent="Mozilla/5.0 (Windows NT 10.0; Win64; x64) AppleWebKit/537.36 (KHTML, like Gecko) draw.io/21.8.2 Chrome/114.0.5735.289 Electron/25.8.1 Safari/537.36" etag="WyG7MtEG32YD566ZuX0e" version="21.8.2" type="device" pages="13">
  <diagram name="Página-1" id="YVorLeRD2NTYy_8TR9HN">
    <mxGraphModel dx="864" dy="508" grid="1" gridSize="10" guides="1" tooltips="1" connect="1" arrows="1" fold="1" page="1" pageScale="1" pageWidth="850" pageHeight="1100" math="0" shadow="0">
      <root>
        <mxCell id="0" />
        <mxCell id="1" parent="0" />
        <mxCell id="6PPp6qgTOFGPJa6Tmsrm-9" style="edgeStyle=orthogonalEdgeStyle;rounded=0;orthogonalLoop=1;jettySize=auto;html=1;entryX=0;entryY=0.5;entryDx=0;entryDy=0;fontFamily=Times New Roman;" parent="1" source="6PPp6qgTOFGPJa6Tmsrm-1" target="6PPp6qgTOFGPJa6Tmsrm-2" edge="1">
          <mxGeometry relative="1" as="geometry" />
        </mxCell>
        <mxCell id="6PPp6qgTOFGPJa6Tmsrm-1" value="" style="rounded=0;whiteSpace=wrap;html=1;fontFamily=Times New Roman;" parent="1" vertex="1">
          <mxGeometry x="160" y="240" width="320" height="80" as="geometry" />
        </mxCell>
        <mxCell id="6PPp6qgTOFGPJa6Tmsrm-2" value="" style="rounded=0;whiteSpace=wrap;html=1;fontFamily=Times New Roman;" parent="1" vertex="1">
          <mxGeometry x="560" y="240" width="80" height="80" as="geometry" />
        </mxCell>
        <mxCell id="6PPp6qgTOFGPJa6Tmsrm-3" value="" style="shape=umlActor;verticalLabelPosition=bottom;verticalAlign=top;html=1;outlineConnect=0;fontFamily=Times New Roman;" parent="1" vertex="1">
          <mxGeometry x="425" y="250" width="30" height="60" as="geometry" />
        </mxCell>
        <mxCell id="6PPp6qgTOFGPJa6Tmsrm-4" value="" style="shape=umlActor;verticalLabelPosition=bottom;verticalAlign=top;html=1;outlineConnect=0;fontFamily=Times New Roman;" parent="1" vertex="1">
          <mxGeometry x="380" y="250" width="30" height="60" as="geometry" />
        </mxCell>
        <mxCell id="6PPp6qgTOFGPJa6Tmsrm-5" value="" style="shape=umlActor;verticalLabelPosition=bottom;verticalAlign=top;html=1;outlineConnect=0;fontFamily=Times New Roman;" parent="1" vertex="1">
          <mxGeometry x="585" y="250" width="30" height="60" as="geometry" />
        </mxCell>
        <mxCell id="6PPp6qgTOFGPJa6Tmsrm-8" style="edgeStyle=orthogonalEdgeStyle;rounded=0;orthogonalLoop=1;jettySize=auto;html=1;exitX=0;exitY=0.5;exitDx=0;exitDy=0;entryX=0;entryY=0.5;entryDx=0;entryDy=0;curved=1;fontFamily=Times New Roman;" parent="1" source="6PPp6qgTOFGPJa6Tmsrm-6" target="6PPp6qgTOFGPJa6Tmsrm-1" edge="1">
          <mxGeometry relative="1" as="geometry">
            <Array as="points">
              <mxPoint x="110" y="560" />
              <mxPoint x="110" y="280" />
            </Array>
          </mxGeometry>
        </mxCell>
        <mxCell id="6PPp6qgTOFGPJa6Tmsrm-6" value="Clientes" style="ellipse;whiteSpace=wrap;html=1;aspect=fixed;fontFamily=Times New Roman;fontSize=18;" parent="1" vertex="1">
          <mxGeometry x="365" y="520" width="80" height="80" as="geometry" />
        </mxCell>
        <mxCell id="6PPp6qgTOFGPJa6Tmsrm-10" value="k = finito" style="text;html=1;strokeColor=none;fillColor=none;align=center;verticalAlign=middle;whiteSpace=wrap;rounded=0;fontFamily=Times New Roman;fontSize=18;" parent="1" vertex="1">
          <mxGeometry x="330" y="220" width="70" height="20" as="geometry" />
        </mxCell>
        <mxCell id="6PPp6qgTOFGPJa6Tmsrm-11" value="S&lt;sub&gt;2&lt;/sub&gt;" style="text;html=1;strokeColor=none;fillColor=none;align=center;verticalAlign=middle;whiteSpace=wrap;rounded=0;fontFamily=Times New Roman;fontSize=18;" parent="1" vertex="1">
          <mxGeometry x="570" y="220" width="60" height="20" as="geometry" />
        </mxCell>
        <mxCell id="6PPp6qgTOFGPJa6Tmsrm-12" value="µ&lt;span style=&quot;background: linear-gradient(90deg, rgb(52, 69, 127) 50%, rgba(0, 0, 0, 0) 50%) 0% 0px / 200% 100% no-repeat rgb(31, 31, 31); color: rgb(255, 255, 255); animation: 0.75s cubic-bezier(0.05, 0.7, 0.1, 1) 0.25s 1 normal forwards running highlight; font-size: 18px; text-align: left;&quot;&gt;&lt;/span&gt;&lt;span style=&quot;background: linear-gradient(90deg, rgb(52, 69, 127) 50%, rgba(0, 0, 0, 0) 50%) 0% 0px / 200% 100% no-repeat rgb(31, 31, 31); color: rgb(255, 255, 255); animation: 0.75s cubic-bezier(0.05, 0.7, 0.1, 1) 0.25s 1 normal forwards running highlight; font-size: 18px; text-align: left;&quot;&gt;&lt;/span&gt;&lt;span style=&quot;background: linear-gradient(90deg, rgb(52, 69, 127) 50%, rgba(0, 0, 0, 0) 50%) 0% 0px / 200% 100% no-repeat rgb(31, 31, 31); color: rgb(255, 255, 255); animation: 0.75s cubic-bezier(0.05, 0.7, 0.1, 1) 0.25s 1 normal forwards running highlight; font-size: 18px; text-align: left;&quot;&gt;&lt;/span&gt;&lt;span style=&quot;background: linear-gradient(90deg, rgb(52, 69, 127) 50%, rgba(0, 0, 0, 0) 50%) 0% 0px / 200% 100% no-repeat rgb(31, 31, 31); color: rgb(255, 255, 255); animation: 0.75s cubic-bezier(0.05, 0.7, 0.1, 1) 0.25s 1 normal forwards running highlight; font-size: 18px; text-align: left;&quot;&gt;&lt;/span&gt;" style="text;html=1;strokeColor=none;fillColor=none;align=center;verticalAlign=middle;whiteSpace=wrap;rounded=0;fontFamily=Times New Roman;fontSize=18;" parent="1" vertex="1">
          <mxGeometry x="570" y="70" width="60" height="20" as="geometry" />
        </mxCell>
        <mxCell id="6PPp6qgTOFGPJa6Tmsrm-13" value="&amp;nbsp;λ" style="text;html=1;strokeColor=none;fillColor=none;align=center;verticalAlign=middle;whiteSpace=wrap;rounded=0;fontFamily=Times New Roman;fontSize=18;" parent="1" vertex="1">
          <mxGeometry x="70" y="410" width="60" height="20" as="geometry" />
        </mxCell>
        <mxCell id="6PPp6qgTOFGPJa6Tmsrm-15" value="" style="shape=umlActor;verticalLabelPosition=bottom;verticalAlign=top;html=1;outlineConnect=0;fontFamily=Times New Roman;" parent="1" vertex="1">
          <mxGeometry x="330" y="250" width="30" height="60" as="geometry" />
        </mxCell>
        <mxCell id="6PPp6qgTOFGPJa6Tmsrm-16" value="" style="shape=umlActor;verticalLabelPosition=bottom;verticalAlign=top;html=1;outlineConnect=0;fontFamily=Times New Roman;" parent="1" vertex="1">
          <mxGeometry x="280" y="250" width="30" height="60" as="geometry" />
        </mxCell>
        <mxCell id="6PPp6qgTOFGPJa6Tmsrm-18" value="" style="shape=umlActor;verticalLabelPosition=bottom;verticalAlign=top;html=1;outlineConnect=0;fontFamily=Times New Roman;" parent="1" vertex="1">
          <mxGeometry x="230" y="250" width="30" height="60" as="geometry" />
        </mxCell>
        <mxCell id="6PPp6qgTOFGPJa6Tmsrm-19" value="" style="shape=umlActor;verticalLabelPosition=bottom;verticalAlign=top;html=1;outlineConnect=0;fontFamily=Times New Roman;" parent="1" vertex="1">
          <mxGeometry x="180" y="250" width="30" height="60" as="geometry" />
        </mxCell>
        <mxCell id="6PPp6qgTOFGPJa6Tmsrm-21" value="" style="rounded=0;whiteSpace=wrap;html=1;fontFamily=Times New Roman;" parent="1" vertex="1">
          <mxGeometry x="560" y="120" width="80" height="80" as="geometry" />
        </mxCell>
        <mxCell id="6PPp6qgTOFGPJa6Tmsrm-22" value="" style="shape=umlActor;verticalLabelPosition=bottom;verticalAlign=top;html=1;outlineConnect=0;fontFamily=Times New Roman;" parent="1" vertex="1">
          <mxGeometry x="585" y="130" width="30" height="60" as="geometry" />
        </mxCell>
        <mxCell id="6PPp6qgTOFGPJa6Tmsrm-23" value="S&lt;sub&gt;1&lt;/sub&gt;" style="text;html=1;strokeColor=none;fillColor=none;align=center;verticalAlign=middle;whiteSpace=wrap;rounded=0;fontFamily=Times New Roman;fontSize=18;" parent="1" vertex="1">
          <mxGeometry x="570" y="100" width="60" height="20" as="geometry" />
        </mxCell>
        <mxCell id="6PPp6qgTOFGPJa6Tmsrm-28" value="" style="rounded=0;whiteSpace=wrap;html=1;fontFamily=Times New Roman;" parent="1" vertex="1">
          <mxGeometry x="560" y="400" width="80" height="80" as="geometry" />
        </mxCell>
        <mxCell id="6PPp6qgTOFGPJa6Tmsrm-29" value="" style="shape=umlActor;verticalLabelPosition=bottom;verticalAlign=top;html=1;outlineConnect=0;fontFamily=Times New Roman;" parent="1" vertex="1">
          <mxGeometry x="585" y="410" width="30" height="60" as="geometry" />
        </mxCell>
        <mxCell id="6PPp6qgTOFGPJa6Tmsrm-30" value="S&lt;span style=&quot;font-size: 15px;&quot;&gt;&lt;sub&gt;S&lt;/sub&gt;&lt;/span&gt;" style="text;html=1;strokeColor=none;fillColor=none;align=center;verticalAlign=middle;whiteSpace=wrap;rounded=0;fontFamily=Times New Roman;fontSize=18;" parent="1" vertex="1">
          <mxGeometry x="570" y="380" width="60" height="20" as="geometry" />
        </mxCell>
        <mxCell id="6PPp6qgTOFGPJa6Tmsrm-31" value="" style="endArrow=none;dashed=1;html=1;dashPattern=1 3;strokeWidth=2;rounded=0;" parent="1" edge="1">
          <mxGeometry width="50" height="50" relative="1" as="geometry">
            <mxPoint x="600" y="370" as="sourcePoint" />
            <mxPoint x="600" y="340" as="targetPoint" />
          </mxGeometry>
        </mxCell>
        <mxCell id="6PPp6qgTOFGPJa6Tmsrm-35" style="edgeStyle=orthogonalEdgeStyle;rounded=0;orthogonalLoop=1;jettySize=auto;html=1;exitX=0.1;exitY=0.5;exitDx=0;exitDy=0;exitPerimeter=0;entryX=1;entryY=0.5;entryDx=0;entryDy=0;curved=1;" parent="1" source="6PPp6qgTOFGPJa6Tmsrm-34" target="6PPp6qgTOFGPJa6Tmsrm-6" edge="1">
          <mxGeometry relative="1" as="geometry">
            <Array as="points">
              <mxPoint x="750" y="300" />
              <mxPoint x="750" y="560" />
            </Array>
          </mxGeometry>
        </mxCell>
        <mxCell id="6PPp6qgTOFGPJa6Tmsrm-34" value="" style="shape=curlyBracket;whiteSpace=wrap;html=1;rounded=1;flipH=1;labelPosition=right;verticalLabelPosition=middle;align=left;verticalAlign=middle;" parent="1" vertex="1">
          <mxGeometry x="650" y="120" width="20" height="360" as="geometry" />
        </mxCell>
        <mxCell id="Z332Vh7oi5N21TglmP7B-1" value="" style="rounded=0;whiteSpace=wrap;html=1;fillColor=none;" parent="1" vertex="1">
          <mxGeometry x="550" y="90" width="100" height="400" as="geometry" />
        </mxCell>
      </root>
    </mxGraphModel>
  </diagram>
  <diagram id="Le0xPThiwnjS3wAxeOaL" name="Página-2">
    <mxGraphModel dx="411" dy="242" grid="1" gridSize="10" guides="1" tooltips="1" connect="1" arrows="1" fold="1" page="1" pageScale="1" pageWidth="850" pageHeight="1100" math="0" shadow="0">
      <root>
        <mxCell id="0" />
        <mxCell id="1" parent="0" />
        <mxCell id="ld2dzbJapCjbL-3RGcIa-5" style="edgeStyle=orthogonalEdgeStyle;curved=1;rounded=0;orthogonalLoop=1;jettySize=auto;html=1;fontFamily=Times New Roman;" edge="1" parent="1" source="ld2dzbJapCjbL-3RGcIa-1" target="ld2dzbJapCjbL-3RGcIa-3">
          <mxGeometry relative="1" as="geometry" />
        </mxCell>
        <mxCell id="ld2dzbJapCjbL-3RGcIa-14" value="0.2" style="edgeLabel;html=1;align=center;verticalAlign=middle;resizable=0;points=[];fontFamily=Times New Roman;" vertex="1" connectable="0" parent="ld2dzbJapCjbL-3RGcIa-5">
          <mxGeometry x="-0.2786" y="-1" relative="1" as="geometry">
            <mxPoint as="offset" />
          </mxGeometry>
        </mxCell>
        <mxCell id="ld2dzbJapCjbL-3RGcIa-6" style="edgeStyle=orthogonalEdgeStyle;curved=1;rounded=0;orthogonalLoop=1;jettySize=auto;html=1;fontFamily=Times New Roman;" edge="1" parent="1" source="ld2dzbJapCjbL-3RGcIa-1" target="ld2dzbJapCjbL-3RGcIa-2">
          <mxGeometry relative="1" as="geometry" />
        </mxCell>
        <mxCell id="ld2dzbJapCjbL-3RGcIa-16" value="0.5" style="edgeLabel;html=1;align=center;verticalAlign=middle;resizable=0;points=[];fontFamily=Times New Roman;" vertex="1" connectable="0" parent="ld2dzbJapCjbL-3RGcIa-6">
          <mxGeometry x="-0.0464" relative="1" as="geometry">
            <mxPoint as="offset" />
          </mxGeometry>
        </mxCell>
        <mxCell id="ld2dzbJapCjbL-3RGcIa-1" value="&lt;font style=&quot;font-size: 18px;&quot;&gt;1&lt;/font&gt;" style="ellipse;whiteSpace=wrap;html=1;aspect=fixed;fontFamily=Times New Roman;" vertex="1" parent="1">
          <mxGeometry x="240" y="340" width="40" height="40" as="geometry" />
        </mxCell>
        <mxCell id="ld2dzbJapCjbL-3RGcIa-11" style="edgeStyle=none;rounded=0;orthogonalLoop=1;jettySize=auto;html=1;fontFamily=Times New Roman;" edge="1" parent="1" source="ld2dzbJapCjbL-3RGcIa-2" target="ld2dzbJapCjbL-3RGcIa-3">
          <mxGeometry relative="1" as="geometry" />
        </mxCell>
        <mxCell id="ld2dzbJapCjbL-3RGcIa-18" value="0.1" style="edgeLabel;html=1;align=center;verticalAlign=middle;resizable=0;points=[];fontFamily=Times New Roman;" vertex="1" connectable="0" parent="ld2dzbJapCjbL-3RGcIa-11">
          <mxGeometry x="-0.1937" y="-2" relative="1" as="geometry">
            <mxPoint x="-15" y="11" as="offset" />
          </mxGeometry>
        </mxCell>
        <mxCell id="ld2dzbJapCjbL-3RGcIa-12" style="edgeStyle=none;rounded=0;orthogonalLoop=1;jettySize=auto;html=1;fontFamily=Times New Roman;" edge="1" parent="1" source="ld2dzbJapCjbL-3RGcIa-2" target="ld2dzbJapCjbL-3RGcIa-4">
          <mxGeometry relative="1" as="geometry" />
        </mxCell>
        <mxCell id="ld2dzbJapCjbL-3RGcIa-19" value="0.5" style="edgeLabel;html=1;align=center;verticalAlign=middle;resizable=0;points=[];fontFamily=Times New Roman;" vertex="1" connectable="0" parent="ld2dzbJapCjbL-3RGcIa-12">
          <mxGeometry x="-0.2929" y="-1" relative="1" as="geometry">
            <mxPoint as="offset" />
          </mxGeometry>
        </mxCell>
        <mxCell id="ld2dzbJapCjbL-3RGcIa-2" value="&lt;span style=&quot;font-size: 18px;&quot;&gt;2&lt;/span&gt;" style="ellipse;whiteSpace=wrap;html=1;aspect=fixed;fontFamily=Times New Roman;" vertex="1" parent="1">
          <mxGeometry x="440" y="340" width="40" height="40" as="geometry" />
        </mxCell>
        <mxCell id="ld2dzbJapCjbL-3RGcIa-3" value="&lt;font style=&quot;font-size: 18px;&quot;&gt;0&lt;/font&gt;" style="ellipse;whiteSpace=wrap;html=1;aspect=fixed;fontFamily=Times New Roman;" vertex="1" parent="1">
          <mxGeometry x="240" y="460" width="40" height="40" as="geometry" />
        </mxCell>
        <mxCell id="ld2dzbJapCjbL-3RGcIa-13" style="edgeStyle=none;rounded=0;orthogonalLoop=1;jettySize=auto;html=1;fontFamily=Times New Roman;" edge="1" parent="1" source="ld2dzbJapCjbL-3RGcIa-4" target="ld2dzbJapCjbL-3RGcIa-3">
          <mxGeometry relative="1" as="geometry" />
        </mxCell>
        <mxCell id="ld2dzbJapCjbL-3RGcIa-20" value="0.6" style="edgeLabel;html=1;align=center;verticalAlign=middle;resizable=0;points=[];fontFamily=Times New Roman;" vertex="1" connectable="0" parent="ld2dzbJapCjbL-3RGcIa-13">
          <mxGeometry x="-0.1107" relative="1" as="geometry">
            <mxPoint as="offset" />
          </mxGeometry>
        </mxCell>
        <mxCell id="ld2dzbJapCjbL-3RGcIa-4" value="&lt;font style=&quot;font-size: 18px;&quot;&gt;3&lt;/font&gt;" style="ellipse;whiteSpace=wrap;html=1;aspect=fixed;fontFamily=Times New Roman;" vertex="1" parent="1">
          <mxGeometry x="440" y="460" width="40" height="40" as="geometry" />
        </mxCell>
        <mxCell id="ld2dzbJapCjbL-3RGcIa-8" style="edgeStyle=orthogonalEdgeStyle;curved=1;rounded=0;orthogonalLoop=1;jettySize=auto;html=1;entryX=0;entryY=0.5;entryDx=0;entryDy=0;fontFamily=Times New Roman;" edge="1" parent="1" source="ld2dzbJapCjbL-3RGcIa-1" target="ld2dzbJapCjbL-3RGcIa-1">
          <mxGeometry relative="1" as="geometry">
            <Array as="points">
              <mxPoint x="260" y="320" />
              <mxPoint x="220" y="320" />
              <mxPoint x="220" y="360" />
            </Array>
          </mxGeometry>
        </mxCell>
        <mxCell id="ld2dzbJapCjbL-3RGcIa-15" value="0.3" style="edgeLabel;html=1;align=center;verticalAlign=middle;resizable=0;points=[];fontFamily=Times New Roman;" vertex="1" connectable="0" parent="ld2dzbJapCjbL-3RGcIa-8">
          <mxGeometry x="-0.119" y="4" relative="1" as="geometry">
            <mxPoint as="offset" />
          </mxGeometry>
        </mxCell>
        <mxCell id="ld2dzbJapCjbL-3RGcIa-9" style="edgeStyle=orthogonalEdgeStyle;curved=1;rounded=0;orthogonalLoop=1;jettySize=auto;html=1;entryX=1;entryY=0.5;entryDx=0;entryDy=0;fontFamily=Times New Roman;" edge="1" parent="1" source="ld2dzbJapCjbL-3RGcIa-2" target="ld2dzbJapCjbL-3RGcIa-2">
          <mxGeometry relative="1" as="geometry" />
        </mxCell>
        <mxCell id="ld2dzbJapCjbL-3RGcIa-17" value="0.4" style="edgeLabel;html=1;align=center;verticalAlign=middle;resizable=0;points=[];fontFamily=Times New Roman;" vertex="1" connectable="0" parent="ld2dzbJapCjbL-3RGcIa-9">
          <mxGeometry x="-0.1" y="-4" relative="1" as="geometry">
            <mxPoint as="offset" />
          </mxGeometry>
        </mxCell>
        <mxCell id="ld2dzbJapCjbL-3RGcIa-24" value="&lt;font face=&quot;Times New Roman&quot;&gt;0.4&lt;/font&gt;" style="edgeStyle=orthogonalEdgeStyle;curved=1;rounded=0;orthogonalLoop=1;jettySize=auto;html=1;entryX=1;entryY=0.5;entryDx=0;entryDy=0;exitX=0.5;exitY=1;exitDx=0;exitDy=0;" edge="1" parent="1" source="ld2dzbJapCjbL-3RGcIa-4" target="ld2dzbJapCjbL-3RGcIa-4">
          <mxGeometry x="0.1667" relative="1" as="geometry">
            <Array as="points">
              <mxPoint x="460" y="520" />
              <mxPoint x="500" y="520" />
              <mxPoint x="500" y="480" />
            </Array>
            <mxPoint as="offset" />
          </mxGeometry>
        </mxCell>
      </root>
    </mxGraphModel>
  </diagram>
  <diagram id="eNmUAPAjlmQjDrdhqL0J" name="Página-3">
    <mxGraphModel dx="720" dy="423" grid="1" gridSize="10" guides="1" tooltips="1" connect="1" arrows="1" fold="1" page="1" pageScale="1" pageWidth="850" pageHeight="1100" math="0" shadow="0">
      <root>
        <mxCell id="0" />
        <mxCell id="1" parent="0" />
        <mxCell id="0VMJzv3J0OWq5BbJ6_AL-22" style="edgeStyle=none;rounded=0;orthogonalLoop=1;jettySize=auto;html=1;fontFamily=Times New Roman;" edge="1" parent="1" source="0VMJzv3J0OWq5BbJ6_AL-5" target="0VMJzv3J0OWq5BbJ6_AL-14">
          <mxGeometry relative="1" as="geometry" />
        </mxCell>
        <mxCell id="0VMJzv3J0OWq5BbJ6_AL-30" value="0.6" style="edgeLabel;html=1;align=center;verticalAlign=middle;resizable=0;points=[];fontFamily=Times New Roman;" vertex="1" connectable="0" parent="0VMJzv3J0OWq5BbJ6_AL-22">
          <mxGeometry x="-0.5189" y="-2" relative="1" as="geometry">
            <mxPoint as="offset" />
          </mxGeometry>
        </mxCell>
        <mxCell id="0VMJzv3J0OWq5BbJ6_AL-5" value="&lt;font style=&quot;font-size: 18px;&quot;&gt;1&lt;/font&gt;" style="ellipse;whiteSpace=wrap;html=1;aspect=fixed;fontFamily=Times New Roman;" vertex="1" parent="1">
          <mxGeometry x="260" y="260" width="40" height="40" as="geometry" />
        </mxCell>
        <mxCell id="0VMJzv3J0OWq5BbJ6_AL-23" style="edgeStyle=none;rounded=0;orthogonalLoop=1;jettySize=auto;html=1;fontFamily=Times New Roman;" edge="1" parent="1" source="0VMJzv3J0OWq5BbJ6_AL-10" target="0VMJzv3J0OWq5BbJ6_AL-5">
          <mxGeometry relative="1" as="geometry" />
        </mxCell>
        <mxCell id="0VMJzv3J0OWq5BbJ6_AL-28" value="0.5" style="edgeLabel;html=1;align=center;verticalAlign=middle;resizable=0;points=[];fontFamily=Times New Roman;" vertex="1" connectable="0" parent="0VMJzv3J0OWq5BbJ6_AL-23">
          <mxGeometry x="-0.0208" y="1" relative="1" as="geometry">
            <mxPoint as="offset" />
          </mxGeometry>
        </mxCell>
        <mxCell id="0VMJzv3J0OWq5BbJ6_AL-24" style="edgeStyle=none;rounded=0;orthogonalLoop=1;jettySize=auto;html=1;fontFamily=Times New Roman;" edge="1" parent="1" source="0VMJzv3J0OWq5BbJ6_AL-10" target="0VMJzv3J0OWq5BbJ6_AL-11">
          <mxGeometry relative="1" as="geometry" />
        </mxCell>
        <mxCell id="0VMJzv3J0OWq5BbJ6_AL-29" value="0.5" style="edgeLabel;html=1;align=center;verticalAlign=middle;resizable=0;points=[];fontFamily=Times New Roman;" vertex="1" connectable="0" parent="0VMJzv3J0OWq5BbJ6_AL-24">
          <mxGeometry x="-0.5455" y="-2" relative="1" as="geometry">
            <mxPoint as="offset" />
          </mxGeometry>
        </mxCell>
        <mxCell id="0VMJzv3J0OWq5BbJ6_AL-10" value="&lt;span style=&quot;font-size: 18px;&quot;&gt;2&lt;/span&gt;" style="ellipse;whiteSpace=wrap;html=1;aspect=fixed;fontFamily=Times New Roman;" vertex="1" parent="1">
          <mxGeometry x="460" y="260" width="40" height="40" as="geometry" />
        </mxCell>
        <mxCell id="0VMJzv3J0OWq5BbJ6_AL-26" style="edgeStyle=orthogonalEdgeStyle;curved=1;rounded=0;orthogonalLoop=1;jettySize=auto;html=1;entryX=0.5;entryY=1;entryDx=0;entryDy=0;fontFamily=Times New Roman;" edge="1" parent="1" source="0VMJzv3J0OWq5BbJ6_AL-11" target="0VMJzv3J0OWq5BbJ6_AL-14">
          <mxGeometry relative="1" as="geometry">
            <Array as="points">
              <mxPoint x="280" y="440" />
              <mxPoint x="480" y="440" />
            </Array>
          </mxGeometry>
        </mxCell>
        <mxCell id="0VMJzv3J0OWq5BbJ6_AL-32" value="0.5" style="edgeLabel;html=1;align=center;verticalAlign=middle;resizable=0;points=[];fontFamily=Times New Roman;" vertex="1" connectable="0" parent="0VMJzv3J0OWq5BbJ6_AL-26">
          <mxGeometry y="-2" relative="1" as="geometry">
            <mxPoint as="offset" />
          </mxGeometry>
        </mxCell>
        <mxCell id="0VMJzv3J0OWq5BbJ6_AL-11" value="&lt;font style=&quot;font-size: 18px;&quot;&gt;4&lt;/font&gt;" style="ellipse;whiteSpace=wrap;html=1;aspect=fixed;fontFamily=Times New Roman;" vertex="1" parent="1">
          <mxGeometry x="260" y="380" width="40" height="40" as="geometry" />
        </mxCell>
        <mxCell id="0VMJzv3J0OWq5BbJ6_AL-25" style="edgeStyle=none;rounded=0;orthogonalLoop=1;jettySize=auto;html=1;fontFamily=Times New Roman;" edge="1" parent="1" source="0VMJzv3J0OWq5BbJ6_AL-14" target="0VMJzv3J0OWq5BbJ6_AL-11">
          <mxGeometry relative="1" as="geometry" />
        </mxCell>
        <mxCell id="0VMJzv3J0OWq5BbJ6_AL-31" value="1" style="edgeLabel;html=1;align=center;verticalAlign=middle;resizable=0;points=[];fontFamily=Times New Roman;" vertex="1" connectable="0" parent="0VMJzv3J0OWq5BbJ6_AL-25">
          <mxGeometry y="-1" relative="1" as="geometry">
            <mxPoint y="1" as="offset" />
          </mxGeometry>
        </mxCell>
        <mxCell id="0VMJzv3J0OWq5BbJ6_AL-14" value="&lt;font style=&quot;font-size: 18px;&quot;&gt;3&lt;/font&gt;" style="ellipse;whiteSpace=wrap;html=1;aspect=fixed;fontFamily=Times New Roman;" vertex="1" parent="1">
          <mxGeometry x="460" y="380" width="40" height="40" as="geometry" />
        </mxCell>
        <mxCell id="0VMJzv3J0OWq5BbJ6_AL-15" style="edgeStyle=orthogonalEdgeStyle;curved=1;rounded=0;orthogonalLoop=1;jettySize=auto;html=1;entryX=0;entryY=0.5;entryDx=0;entryDy=0;fontFamily=Times New Roman;" edge="1" parent="1" source="0VMJzv3J0OWq5BbJ6_AL-5" target="0VMJzv3J0OWq5BbJ6_AL-5">
          <mxGeometry relative="1" as="geometry">
            <Array as="points">
              <mxPoint x="280" y="240" />
              <mxPoint x="240" y="240" />
              <mxPoint x="240" y="280" />
            </Array>
          </mxGeometry>
        </mxCell>
        <mxCell id="0VMJzv3J0OWq5BbJ6_AL-16" value="0.4" style="edgeLabel;html=1;align=center;verticalAlign=middle;resizable=0;points=[];fontFamily=Times New Roman;" vertex="1" connectable="0" parent="0VMJzv3J0OWq5BbJ6_AL-15">
          <mxGeometry x="-0.119" y="4" relative="1" as="geometry">
            <mxPoint as="offset" />
          </mxGeometry>
        </mxCell>
        <mxCell id="0VMJzv3J0OWq5BbJ6_AL-27" style="edgeStyle=orthogonalEdgeStyle;curved=1;rounded=0;orthogonalLoop=1;jettySize=auto;html=1;entryX=0;entryY=0.5;entryDx=0;entryDy=0;fontFamily=Times New Roman;" edge="1" parent="1" source="0VMJzv3J0OWq5BbJ6_AL-11" target="0VMJzv3J0OWq5BbJ6_AL-11">
          <mxGeometry relative="1" as="geometry">
            <Array as="points">
              <mxPoint x="280" y="360" />
              <mxPoint x="240" y="360" />
              <mxPoint x="240" y="400" />
            </Array>
          </mxGeometry>
        </mxCell>
        <mxCell id="0VMJzv3J0OWq5BbJ6_AL-33" value="0.5" style="edgeLabel;html=1;align=center;verticalAlign=middle;resizable=0;points=[];fontFamily=Times New Roman;" vertex="1" connectable="0" parent="0VMJzv3J0OWq5BbJ6_AL-27">
          <mxGeometry x="0.1167" y="5" relative="1" as="geometry">
            <mxPoint as="offset" />
          </mxGeometry>
        </mxCell>
      </root>
    </mxGraphModel>
  </diagram>
  <diagram id="fVRt8A6hSwnc2Y7Ntc3j" name="Página-4">
    <mxGraphModel dx="864" dy="508" grid="1" gridSize="10" guides="1" tooltips="1" connect="1" arrows="1" fold="1" page="1" pageScale="1" pageWidth="850" pageHeight="1100" math="0" shadow="0">
      <root>
        <mxCell id="0" />
        <mxCell id="1" parent="0" />
        <mxCell id="qDLsMk7c6EmS7-c1RLPG-27" style="edgeStyle=orthogonalEdgeStyle;curved=1;rounded=0;orthogonalLoop=1;jettySize=auto;html=1;exitX=1;exitY=0;exitDx=0;exitDy=0;entryX=0;entryY=0;entryDx=0;entryDy=0;fontFamily=Times New Roman;" parent="1" source="qDLsMk7c6EmS7-c1RLPG-3" target="qDLsMk7c6EmS7-c1RLPG-8" edge="1">
          <mxGeometry relative="1" as="geometry">
            <Array as="points">
              <mxPoint x="294" y="240" />
              <mxPoint x="466" y="240" />
            </Array>
          </mxGeometry>
        </mxCell>
        <mxCell id="qDLsMk7c6EmS7-c1RLPG-35" value="0.6" style="edgeLabel;html=1;align=center;verticalAlign=middle;resizable=0;points=[];fontFamily=Times New Roman;" parent="qDLsMk7c6EmS7-c1RLPG-27" vertex="1" connectable="0">
          <mxGeometry x="-0.0074" y="2" relative="1" as="geometry">
            <mxPoint as="offset" />
          </mxGeometry>
        </mxCell>
        <mxCell id="qDLsMk7c6EmS7-c1RLPG-3" value="&lt;font style=&quot;font-size: 18px;&quot;&gt;1&lt;/font&gt;" style="ellipse;whiteSpace=wrap;html=1;aspect=fixed;fontFamily=Times New Roman;" parent="1" vertex="1">
          <mxGeometry x="260" y="260" width="40" height="40" as="geometry" />
        </mxCell>
        <mxCell id="qDLsMk7c6EmS7-c1RLPG-28" style="edgeStyle=orthogonalEdgeStyle;curved=1;rounded=0;orthogonalLoop=1;jettySize=auto;html=1;exitX=0;exitY=1;exitDx=0;exitDy=0;entryX=1;entryY=1;entryDx=0;entryDy=0;fontFamily=Times New Roman;" parent="1" source="qDLsMk7c6EmS7-c1RLPG-8" target="qDLsMk7c6EmS7-c1RLPG-3" edge="1">
          <mxGeometry relative="1" as="geometry">
            <Array as="points">
              <mxPoint x="466" y="320" />
              <mxPoint x="294" y="320" />
            </Array>
          </mxGeometry>
        </mxCell>
        <mxCell id="qDLsMk7c6EmS7-c1RLPG-36" value="0.2" style="edgeLabel;html=1;align=center;verticalAlign=middle;resizable=0;points=[];fontFamily=Times New Roman;" parent="qDLsMk7c6EmS7-c1RLPG-28" vertex="1" connectable="0">
          <mxGeometry x="-0.0111" y="2" relative="1" as="geometry">
            <mxPoint as="offset" />
          </mxGeometry>
        </mxCell>
        <mxCell id="qDLsMk7c6EmS7-c1RLPG-8" value="&lt;span style=&quot;font-size: 18px;&quot;&gt;2&lt;/span&gt;" style="ellipse;whiteSpace=wrap;html=1;aspect=fixed;fontFamily=Times New Roman;" parent="1" vertex="1">
          <mxGeometry x="460" y="260" width="40" height="40" as="geometry" />
        </mxCell>
        <mxCell id="qDLsMk7c6EmS7-c1RLPG-29" style="edgeStyle=orthogonalEdgeStyle;curved=1;rounded=0;orthogonalLoop=1;jettySize=auto;html=1;exitX=0;exitY=0.5;exitDx=0;exitDy=0;entryX=0.5;entryY=1;entryDx=0;entryDy=0;fontFamily=Times New Roman;" parent="1" source="qDLsMk7c6EmS7-c1RLPG-14" target="qDLsMk7c6EmS7-c1RLPG-3" edge="1">
          <mxGeometry relative="1" as="geometry" />
        </mxCell>
        <mxCell id="qDLsMk7c6EmS7-c1RLPG-38" value="0.3" style="edgeLabel;html=1;align=center;verticalAlign=middle;resizable=0;points=[];fontFamily=Times New Roman;" parent="qDLsMk7c6EmS7-c1RLPG-29" vertex="1" connectable="0">
          <mxGeometry x="0.2517" y="-8" relative="1" as="geometry">
            <mxPoint as="offset" />
          </mxGeometry>
        </mxCell>
        <mxCell id="qDLsMk7c6EmS7-c1RLPG-30" style="edgeStyle=orthogonalEdgeStyle;curved=1;rounded=0;orthogonalLoop=1;jettySize=auto;html=1;exitX=1;exitY=0.5;exitDx=0;exitDy=0;entryX=0.5;entryY=1;entryDx=0;entryDy=0;fontFamily=Times New Roman;" parent="1" source="qDLsMk7c6EmS7-c1RLPG-14" target="qDLsMk7c6EmS7-c1RLPG-8" edge="1">
          <mxGeometry relative="1" as="geometry" />
        </mxCell>
        <mxCell id="qDLsMk7c6EmS7-c1RLPG-37" value="0.2" style="edgeLabel;html=1;align=center;verticalAlign=middle;resizable=0;points=[];fontFamily=Times New Roman;" parent="qDLsMk7c6EmS7-c1RLPG-30" vertex="1" connectable="0">
          <mxGeometry x="0.1966" y="10" relative="1" as="geometry">
            <mxPoint as="offset" />
          </mxGeometry>
        </mxCell>
        <mxCell id="qDLsMk7c6EmS7-c1RLPG-14" value="&lt;font style=&quot;font-size: 18px;&quot;&gt;3&lt;/font&gt;" style="ellipse;whiteSpace=wrap;html=1;aspect=fixed;fontFamily=Times New Roman;" parent="1" vertex="1">
          <mxGeometry x="360" y="400" width="40" height="40" as="geometry" />
        </mxCell>
        <mxCell id="qDLsMk7c6EmS7-c1RLPG-21" style="edgeStyle=orthogonalEdgeStyle;curved=1;rounded=0;orthogonalLoop=1;jettySize=auto;html=1;entryX=1;entryY=0.5;entryDx=0;entryDy=0;fontFamily=Times New Roman;" parent="1" source="qDLsMk7c6EmS7-c1RLPG-8" target="qDLsMk7c6EmS7-c1RLPG-8" edge="1">
          <mxGeometry relative="1" as="geometry" />
        </mxCell>
        <mxCell id="qDLsMk7c6EmS7-c1RLPG-33" value="0.8" style="edgeLabel;html=1;align=center;verticalAlign=middle;resizable=0;points=[];fontFamily=Times New Roman;" parent="qDLsMk7c6EmS7-c1RLPG-21" vertex="1" connectable="0">
          <mxGeometry x="0.1207" y="-6" relative="1" as="geometry">
            <mxPoint as="offset" />
          </mxGeometry>
        </mxCell>
        <mxCell id="qDLsMk7c6EmS7-c1RLPG-25" style="edgeStyle=orthogonalEdgeStyle;curved=1;rounded=0;orthogonalLoop=1;jettySize=auto;html=1;entryX=0;entryY=0.5;entryDx=0;entryDy=0;fontFamily=Times New Roman;" parent="1" source="qDLsMk7c6EmS7-c1RLPG-3" target="qDLsMk7c6EmS7-c1RLPG-3" edge="1">
          <mxGeometry relative="1" as="geometry">
            <Array as="points">
              <mxPoint x="280" y="240" />
              <mxPoint x="240" y="240" />
              <mxPoint x="240" y="280" />
            </Array>
          </mxGeometry>
        </mxCell>
        <mxCell id="qDLsMk7c6EmS7-c1RLPG-32" value="0.4" style="edgeLabel;html=1;align=center;verticalAlign=middle;resizable=0;points=[];fontFamily=Times New Roman;" parent="qDLsMk7c6EmS7-c1RLPG-25" vertex="1" connectable="0">
          <mxGeometry x="0.0977" y="5" relative="1" as="geometry">
            <mxPoint as="offset" />
          </mxGeometry>
        </mxCell>
        <mxCell id="qDLsMk7c6EmS7-c1RLPG-31" style="edgeStyle=orthogonalEdgeStyle;curved=1;rounded=0;orthogonalLoop=1;jettySize=auto;html=1;exitX=1;exitY=1;exitDx=0;exitDy=0;entryX=0;entryY=1;entryDx=0;entryDy=0;fontFamily=Times New Roman;" parent="1" source="qDLsMk7c6EmS7-c1RLPG-14" target="qDLsMk7c6EmS7-c1RLPG-14" edge="1">
          <mxGeometry relative="1" as="geometry">
            <Array as="points">
              <mxPoint x="394" y="460" />
              <mxPoint x="366" y="460" />
            </Array>
          </mxGeometry>
        </mxCell>
        <mxCell id="qDLsMk7c6EmS7-c1RLPG-34" value="0.5" style="edgeLabel;html=1;align=center;verticalAlign=middle;resizable=0;points=[];fontFamily=Times New Roman;" parent="qDLsMk7c6EmS7-c1RLPG-31" vertex="1" connectable="0">
          <mxGeometry x="-0.0829" relative="1" as="geometry">
            <mxPoint x="-3" as="offset" />
          </mxGeometry>
        </mxCell>
      </root>
    </mxGraphModel>
  </diagram>
  <diagram id="A5zVTVlYw-zlhYLEodEQ" name="Página-5">
    <mxGraphModel dx="524" dy="308" grid="1" gridSize="10" guides="1" tooltips="1" connect="1" arrows="1" fold="1" page="1" pageScale="1" pageWidth="850" pageHeight="1100" math="0" shadow="0">
      <root>
        <mxCell id="0" />
        <mxCell id="1" parent="0" />
        <mxCell id="y5D2D1DUzA9P0s6_UHDn-8" style="edgeStyle=orthogonalEdgeStyle;curved=1;rounded=0;orthogonalLoop=1;jettySize=auto;html=1;exitX=1;exitY=0;exitDx=0;exitDy=0;entryX=0;entryY=0;entryDx=0;entryDy=0;fontFamily=Times New Roman;" edge="1" parent="1" source="y5D2D1DUzA9P0s6_UHDn-1" target="y5D2D1DUzA9P0s6_UHDn-3">
          <mxGeometry relative="1" as="geometry">
            <Array as="points">
              <mxPoint x="390" y="366" />
              <mxPoint x="390" y="350" />
              <mxPoint x="530" y="350" />
              <mxPoint x="530" y="366" />
            </Array>
          </mxGeometry>
        </mxCell>
        <mxCell id="y5D2D1DUzA9P0s6_UHDn-19" value="0.24" style="edgeLabel;html=1;align=center;verticalAlign=middle;resizable=0;points=[];fontFamily=Times New Roman;" vertex="1" connectable="0" parent="y5D2D1DUzA9P0s6_UHDn-8">
          <mxGeometry x="-0.0289" relative="1" as="geometry">
            <mxPoint as="offset" />
          </mxGeometry>
        </mxCell>
        <mxCell id="y5D2D1DUzA9P0s6_UHDn-18" style="edgeStyle=orthogonalEdgeStyle;curved=1;rounded=0;orthogonalLoop=1;jettySize=auto;html=1;exitX=0;exitY=1;exitDx=0;exitDy=0;entryX=0;entryY=0.5;entryDx=0;entryDy=0;fontFamily=Times New Roman;" edge="1" parent="1" source="y5D2D1DUzA9P0s6_UHDn-1" target="y5D2D1DUzA9P0s6_UHDn-4">
          <mxGeometry relative="1" as="geometry">
            <Array as="points">
              <mxPoint x="326" y="500" />
            </Array>
          </mxGeometry>
        </mxCell>
        <mxCell id="y5D2D1DUzA9P0s6_UHDn-23" value="0.72" style="edgeLabel;html=1;align=center;verticalAlign=middle;resizable=0;points=[];fontFamily=Times New Roman;" vertex="1" connectable="0" parent="y5D2D1DUzA9P0s6_UHDn-18">
          <mxGeometry x="0.2295" y="26" relative="1" as="geometry">
            <mxPoint as="offset" />
          </mxGeometry>
        </mxCell>
        <mxCell id="y5D2D1DUzA9P0s6_UHDn-1" value="&lt;font style=&quot;font-size: 18px;&quot;&gt;1&lt;/font&gt;" style="ellipse;whiteSpace=wrap;html=1;aspect=fixed;fontFamily=Times New Roman;" vertex="1" parent="1">
          <mxGeometry x="320" y="360" width="40" height="40" as="geometry" />
        </mxCell>
        <mxCell id="y5D2D1DUzA9P0s6_UHDn-9" style="edgeStyle=orthogonalEdgeStyle;curved=1;rounded=0;orthogonalLoop=1;jettySize=auto;html=1;exitX=0;exitY=1;exitDx=0;exitDy=0;entryX=1;entryY=1;entryDx=0;entryDy=0;fontFamily=Times New Roman;" edge="1" parent="1" source="y5D2D1DUzA9P0s6_UHDn-3" target="y5D2D1DUzA9P0s6_UHDn-1">
          <mxGeometry relative="1" as="geometry">
            <Array as="points">
              <mxPoint x="530" y="394" />
              <mxPoint x="530" y="410" />
              <mxPoint x="390" y="410" />
              <mxPoint x="390" y="394" />
            </Array>
          </mxGeometry>
        </mxCell>
        <mxCell id="y5D2D1DUzA9P0s6_UHDn-24" value="0.128" style="edgeLabel;html=1;align=center;verticalAlign=middle;resizable=0;points=[];fontFamily=Times New Roman;" vertex="1" connectable="0" parent="y5D2D1DUzA9P0s6_UHDn-9">
          <mxGeometry x="-0.0175" relative="1" as="geometry">
            <mxPoint as="offset" />
          </mxGeometry>
        </mxCell>
        <mxCell id="y5D2D1DUzA9P0s6_UHDn-15" style="edgeStyle=orthogonalEdgeStyle;rounded=0;orthogonalLoop=1;jettySize=auto;html=1;exitX=1;exitY=1;exitDx=0;exitDy=0;curved=1;entryX=1;entryY=0.5;entryDx=0;entryDy=0;fontFamily=Times New Roman;" edge="1" parent="1" source="y5D2D1DUzA9P0s6_UHDn-3" target="y5D2D1DUzA9P0s6_UHDn-4">
          <mxGeometry relative="1" as="geometry">
            <mxPoint x="490" y="500" as="targetPoint" />
            <Array as="points">
              <mxPoint x="594" y="500" />
            </Array>
          </mxGeometry>
        </mxCell>
        <mxCell id="y5D2D1DUzA9P0s6_UHDn-25" value="0.736" style="edgeLabel;html=1;align=center;verticalAlign=middle;resizable=0;points=[];fontFamily=Times New Roman;" vertex="1" connectable="0" parent="y5D2D1DUzA9P0s6_UHDn-15">
          <mxGeometry x="-0.3278" y="-20" relative="1" as="geometry">
            <mxPoint as="offset" />
          </mxGeometry>
        </mxCell>
        <mxCell id="y5D2D1DUzA9P0s6_UHDn-3" value="&lt;font style=&quot;font-size: 18px;&quot;&gt;2&lt;/font&gt;" style="ellipse;whiteSpace=wrap;html=1;aspect=fixed;fontFamily=Times New Roman;" vertex="1" parent="1">
          <mxGeometry x="560" y="360" width="40" height="40" as="geometry" />
        </mxCell>
        <mxCell id="y5D2D1DUzA9P0s6_UHDn-16" style="edgeStyle=none;rounded=0;orthogonalLoop=1;jettySize=auto;html=1;exitX=1;exitY=0;exitDx=0;exitDy=0;entryX=0.5;entryY=1;entryDx=0;entryDy=0;fontFamily=Times New Roman;" edge="1" parent="1" source="y5D2D1DUzA9P0s6_UHDn-4" target="y5D2D1DUzA9P0s6_UHDn-3">
          <mxGeometry relative="1" as="geometry" />
        </mxCell>
        <mxCell id="y5D2D1DUzA9P0s6_UHDn-27" value="0.192" style="edgeLabel;html=1;align=center;verticalAlign=middle;resizable=0;points=[];fontFamily=Times New Roman;" vertex="1" connectable="0" parent="y5D2D1DUzA9P0s6_UHDn-16">
          <mxGeometry x="0.0222" y="1" relative="1" as="geometry">
            <mxPoint as="offset" />
          </mxGeometry>
        </mxCell>
        <mxCell id="y5D2D1DUzA9P0s6_UHDn-17" style="edgeStyle=none;rounded=0;orthogonalLoop=1;jettySize=auto;html=1;exitX=0;exitY=0;exitDx=0;exitDy=0;entryX=0.5;entryY=1;entryDx=0;entryDy=0;fontFamily=Times New Roman;" edge="1" parent="1" source="y5D2D1DUzA9P0s6_UHDn-4" target="y5D2D1DUzA9P0s6_UHDn-1">
          <mxGeometry relative="1" as="geometry" />
        </mxCell>
        <mxCell id="y5D2D1DUzA9P0s6_UHDn-26" value="0.064" style="edgeLabel;html=1;align=center;verticalAlign=middle;resizable=0;points=[];fontFamily=Times New Roman;" vertex="1" connectable="0" parent="y5D2D1DUzA9P0s6_UHDn-17">
          <mxGeometry x="-0.0338" y="2" relative="1" as="geometry">
            <mxPoint as="offset" />
          </mxGeometry>
        </mxCell>
        <mxCell id="y5D2D1DUzA9P0s6_UHDn-4" value="&lt;font style=&quot;font-size: 18px;&quot;&gt;3&lt;br&gt;&lt;/font&gt;" style="ellipse;whiteSpace=wrap;html=1;aspect=fixed;fontFamily=Times New Roman;" vertex="1" parent="1">
          <mxGeometry x="439.5" y="480" width="40" height="40" as="geometry" />
        </mxCell>
        <mxCell id="y5D2D1DUzA9P0s6_UHDn-5" style="edgeStyle=orthogonalEdgeStyle;curved=1;rounded=0;orthogonalLoop=1;jettySize=auto;html=1;entryX=0;entryY=0.5;entryDx=0;entryDy=0;fontFamily=Times New Roman;" edge="1" parent="1" source="y5D2D1DUzA9P0s6_UHDn-1" target="y5D2D1DUzA9P0s6_UHDn-1">
          <mxGeometry relative="1" as="geometry">
            <Array as="points">
              <mxPoint x="340" y="340" />
              <mxPoint x="300" y="340" />
              <mxPoint x="300" y="380" />
            </Array>
          </mxGeometry>
        </mxCell>
        <mxCell id="y5D2D1DUzA9P0s6_UHDn-20" value="0.04" style="edgeLabel;html=1;align=center;verticalAlign=middle;resizable=0;points=[];fontFamily=Times New Roman;" vertex="1" connectable="0" parent="y5D2D1DUzA9P0s6_UHDn-5">
          <mxGeometry x="-0.1377" y="2" relative="1" as="geometry">
            <mxPoint as="offset" />
          </mxGeometry>
        </mxCell>
        <mxCell id="y5D2D1DUzA9P0s6_UHDn-6" style="edgeStyle=orthogonalEdgeStyle;curved=1;rounded=0;orthogonalLoop=1;jettySize=auto;html=1;entryX=1;entryY=0.5;entryDx=0;entryDy=0;fontFamily=Times New Roman;" edge="1" parent="1" source="y5D2D1DUzA9P0s6_UHDn-3" target="y5D2D1DUzA9P0s6_UHDn-3">
          <mxGeometry relative="1" as="geometry" />
        </mxCell>
        <mxCell id="y5D2D1DUzA9P0s6_UHDn-21" value="0.136" style="edgeLabel;html=1;align=center;verticalAlign=middle;resizable=0;points=[];fontFamily=Times New Roman;" vertex="1" connectable="0" parent="y5D2D1DUzA9P0s6_UHDn-6">
          <mxGeometry x="-0.1278" y="-3" relative="1" as="geometry">
            <mxPoint as="offset" />
          </mxGeometry>
        </mxCell>
        <mxCell id="y5D2D1DUzA9P0s6_UHDn-7" style="edgeStyle=orthogonalEdgeStyle;curved=1;rounded=0;orthogonalLoop=1;jettySize=auto;html=1;exitX=1;exitY=1;exitDx=0;exitDy=0;entryX=0;entryY=1;entryDx=0;entryDy=0;fontFamily=Times New Roman;" edge="1" parent="1" source="y5D2D1DUzA9P0s6_UHDn-4" target="y5D2D1DUzA9P0s6_UHDn-4">
          <mxGeometry relative="1" as="geometry">
            <Array as="points">
              <mxPoint x="474" y="540" />
              <mxPoint x="445" y="540" />
            </Array>
          </mxGeometry>
        </mxCell>
        <mxCell id="y5D2D1DUzA9P0s6_UHDn-22" value="0.744" style="edgeLabel;html=1;align=center;verticalAlign=middle;resizable=0;points=[];fontFamily=Times New Roman;" vertex="1" connectable="0" parent="y5D2D1DUzA9P0s6_UHDn-7">
          <mxGeometry x="-0.0013" relative="1" as="geometry">
            <mxPoint as="offset" />
          </mxGeometry>
        </mxCell>
      </root>
    </mxGraphModel>
  </diagram>
  <diagram id="XlDvq1E2K8bOwHdidKaC" name="Página-6">
    <mxGraphModel dx="720" dy="423" grid="1" gridSize="10" guides="1" tooltips="1" connect="1" arrows="1" fold="1" page="1" pageScale="1" pageWidth="850" pageHeight="1100" math="0" shadow="0">
      <root>
        <mxCell id="0" />
        <mxCell id="1" parent="0" />
        <mxCell id="YfOEcoB02Qi43KbSl_MQ-4" style="edgeStyle=orthogonalEdgeStyle;curved=1;rounded=0;orthogonalLoop=1;jettySize=auto;html=1;fontFamily=Times New Roman;" edge="1" parent="1" source="YfOEcoB02Qi43KbSl_MQ-1" target="YfOEcoB02Qi43KbSl_MQ-2">
          <mxGeometry relative="1" as="geometry" />
        </mxCell>
        <mxCell id="YfOEcoB02Qi43KbSl_MQ-18" value="0.5" style="edgeLabel;html=1;align=center;verticalAlign=middle;resizable=0;points=[];fontFamily=Times New Roman;" vertex="1" connectable="0" parent="YfOEcoB02Qi43KbSl_MQ-4">
          <mxGeometry x="0.0186" relative="1" as="geometry">
            <mxPoint as="offset" />
          </mxGeometry>
        </mxCell>
        <mxCell id="YfOEcoB02Qi43KbSl_MQ-11" style="edgeStyle=orthogonalEdgeStyle;curved=1;rounded=0;orthogonalLoop=1;jettySize=auto;html=1;entryX=0;entryY=0.5;entryDx=0;entryDy=0;fontFamily=Times New Roman;" edge="1" parent="1" source="YfOEcoB02Qi43KbSl_MQ-1" target="YfOEcoB02Qi43KbSl_MQ-3">
          <mxGeometry relative="1" as="geometry">
            <Array as="points">
              <mxPoint x="340" y="340" />
            </Array>
          </mxGeometry>
        </mxCell>
        <mxCell id="YfOEcoB02Qi43KbSl_MQ-12" value="0.5" style="edgeLabel;html=1;align=center;verticalAlign=middle;resizable=0;points=[];fontFamily=Times New Roman;" vertex="1" connectable="0" parent="YfOEcoB02Qi43KbSl_MQ-11">
          <mxGeometry x="0.0443" y="20" relative="1" as="geometry">
            <mxPoint as="offset" />
          </mxGeometry>
        </mxCell>
        <mxCell id="YfOEcoB02Qi43KbSl_MQ-1" value="&lt;font style=&quot;font-size: 18px;&quot;&gt;1&lt;/font&gt;" style="ellipse;whiteSpace=wrap;html=1;aspect=fixed;fontFamily=Times New Roman;" vertex="1" parent="1">
          <mxGeometry x="320" y="200" width="40" height="40" as="geometry" />
        </mxCell>
        <mxCell id="YfOEcoB02Qi43KbSl_MQ-5" style="edgeStyle=orthogonalEdgeStyle;curved=1;rounded=0;orthogonalLoop=1;jettySize=auto;html=1;entryX=1;entryY=0;entryDx=0;entryDy=0;exitX=0;exitY=0;exitDx=0;exitDy=0;fontFamily=Times New Roman;" edge="1" parent="1" source="YfOEcoB02Qi43KbSl_MQ-2" target="YfOEcoB02Qi43KbSl_MQ-1">
          <mxGeometry relative="1" as="geometry">
            <Array as="points">
              <mxPoint x="450" y="206" />
              <mxPoint x="450" y="206" />
            </Array>
          </mxGeometry>
        </mxCell>
        <mxCell id="YfOEcoB02Qi43KbSl_MQ-17" value="0.4" style="edgeLabel;html=1;align=center;verticalAlign=middle;resizable=0;points=[];fontFamily=Times New Roman;" vertex="1" connectable="0" parent="YfOEcoB02Qi43KbSl_MQ-5">
          <mxGeometry x="-0.0085" relative="1" as="geometry">
            <mxPoint as="offset" />
          </mxGeometry>
        </mxCell>
        <mxCell id="YfOEcoB02Qi43KbSl_MQ-6" style="edgeStyle=orthogonalEdgeStyle;curved=1;rounded=0;orthogonalLoop=1;jettySize=auto;html=1;entryX=1;entryY=0.5;entryDx=0;entryDy=0;fontFamily=Times New Roman;" edge="1" parent="1" source="YfOEcoB02Qi43KbSl_MQ-2" target="YfOEcoB02Qi43KbSl_MQ-3">
          <mxGeometry relative="1" as="geometry">
            <Array as="points">
              <mxPoint x="620" y="220" />
              <mxPoint x="620" y="340" />
            </Array>
          </mxGeometry>
        </mxCell>
        <mxCell id="YfOEcoB02Qi43KbSl_MQ-14" value="0.6" style="edgeLabel;html=1;align=center;verticalAlign=middle;resizable=0;points=[];fontFamily=Times New Roman;" vertex="1" connectable="0" parent="YfOEcoB02Qi43KbSl_MQ-6">
          <mxGeometry x="-0.0071" y="-1" relative="1" as="geometry">
            <mxPoint as="offset" />
          </mxGeometry>
        </mxCell>
        <mxCell id="YfOEcoB02Qi43KbSl_MQ-2" value="&lt;font style=&quot;font-size: 18px;&quot;&gt;2&lt;/font&gt;" style="ellipse;whiteSpace=wrap;html=1;aspect=fixed;fontFamily=Times New Roman;" vertex="1" parent="1">
          <mxGeometry x="560" y="200" width="40" height="40" as="geometry" />
        </mxCell>
        <mxCell id="YfOEcoB02Qi43KbSl_MQ-7" style="edgeStyle=orthogonalEdgeStyle;curved=1;rounded=0;orthogonalLoop=1;jettySize=auto;html=1;entryX=0.5;entryY=1;entryDx=0;entryDy=0;fontFamily=Times New Roman;" edge="1" parent="1" source="YfOEcoB02Qi43KbSl_MQ-3" target="YfOEcoB02Qi43KbSl_MQ-2">
          <mxGeometry relative="1" as="geometry" />
        </mxCell>
        <mxCell id="YfOEcoB02Qi43KbSl_MQ-15" value="0.2" style="edgeLabel;html=1;align=center;verticalAlign=middle;resizable=0;points=[];fontFamily=Times New Roman;" vertex="1" connectable="0" parent="YfOEcoB02Qi43KbSl_MQ-7">
          <mxGeometry x="0.0619" y="-1" relative="1" as="geometry">
            <mxPoint as="offset" />
          </mxGeometry>
        </mxCell>
        <mxCell id="YfOEcoB02Qi43KbSl_MQ-3" value="&lt;font style=&quot;font-size: 18px;&quot;&gt;3&lt;/font&gt;" style="ellipse;whiteSpace=wrap;html=1;aspect=fixed;fontFamily=Times New Roman;" vertex="1" parent="1">
          <mxGeometry x="560" y="320" width="40" height="40" as="geometry" />
        </mxCell>
        <mxCell id="YfOEcoB02Qi43KbSl_MQ-9" style="edgeStyle=orthogonalEdgeStyle;curved=1;rounded=0;orthogonalLoop=1;jettySize=auto;html=1;exitX=1;exitY=1;exitDx=0;exitDy=0;entryX=0;entryY=1;entryDx=0;entryDy=0;fontFamily=Times New Roman;" edge="1" parent="1" source="YfOEcoB02Qi43KbSl_MQ-3" target="YfOEcoB02Qi43KbSl_MQ-3">
          <mxGeometry relative="1" as="geometry">
            <Array as="points">
              <mxPoint x="594" y="380" />
              <mxPoint x="566" y="380" />
            </Array>
          </mxGeometry>
        </mxCell>
        <mxCell id="YfOEcoB02Qi43KbSl_MQ-13" value="0.8" style="edgeLabel;html=1;align=center;verticalAlign=middle;resizable=0;points=[];fontFamily=Times New Roman;" vertex="1" connectable="0" parent="YfOEcoB02Qi43KbSl_MQ-9">
          <mxGeometry x="0.0489" y="1" relative="1" as="geometry">
            <mxPoint as="offset" />
          </mxGeometry>
        </mxCell>
        <mxCell id="YfOEcoB02Qi43KbSl_MQ-10" style="edgeStyle=orthogonalEdgeStyle;curved=1;rounded=0;orthogonalLoop=1;jettySize=auto;html=1;entryX=1;entryY=0.25;entryDx=0;entryDy=0;entryPerimeter=0;fontFamily=Times New Roman;" edge="1" parent="1" source="YfOEcoB02Qi43KbSl_MQ-2" target="YfOEcoB02Qi43KbSl_MQ-2">
          <mxGeometry relative="1" as="geometry" />
        </mxCell>
        <mxCell id="YfOEcoB02Qi43KbSl_MQ-16" value="0.5" style="edgeLabel;html=1;align=center;verticalAlign=middle;resizable=0;points=[];fontFamily=Times New Roman;" vertex="1" connectable="0" parent="YfOEcoB02Qi43KbSl_MQ-10">
          <mxGeometry x="-0.0225" y="-4" relative="1" as="geometry">
            <mxPoint as="offset" />
          </mxGeometry>
        </mxCell>
      </root>
    </mxGraphModel>
  </diagram>
  <diagram id="brUMm2138Asi2hQ_MmUN" name="Página-7">
    <mxGraphModel dx="864" dy="508" grid="1" gridSize="10" guides="1" tooltips="1" connect="1" arrows="1" fold="1" page="1" pageScale="1" pageWidth="850" pageHeight="1100" math="0" shadow="0">
      <root>
        <mxCell id="0" />
        <mxCell id="1" parent="0" />
        <mxCell id="qYbH3qcipkmsY9NSbLPy-1" value="&lt;font style=&quot;font-size: 18px;&quot;&gt;1&lt;/font&gt;" style="ellipse;whiteSpace=wrap;html=1;aspect=fixed;fontFamily=Times New Roman;" parent="1" vertex="1">
          <mxGeometry x="320" y="200" width="40" height="40" as="geometry" />
        </mxCell>
        <mxCell id="qYbH3qcipkmsY9NSbLPy-9" style="edgeStyle=orthogonalEdgeStyle;curved=1;rounded=0;orthogonalLoop=1;jettySize=auto;html=1;fontFamily=Times New Roman;" parent="1" source="qYbH3qcipkmsY9NSbLPy-2" target="qYbH3qcipkmsY9NSbLPy-3" edge="1">
          <mxGeometry relative="1" as="geometry">
            <Array as="points">
              <mxPoint x="510" y="280" />
              <mxPoint x="510" y="280" />
            </Array>
          </mxGeometry>
        </mxCell>
        <mxCell id="qYbH3qcipkmsY9NSbLPy-17" value="1/2" style="edgeLabel;html=1;align=center;verticalAlign=middle;resizable=0;points=[];fontFamily=Times New Roman;" parent="qYbH3qcipkmsY9NSbLPy-9" vertex="1" connectable="0">
          <mxGeometry x="-0.0015" relative="1" as="geometry">
            <mxPoint as="offset" />
          </mxGeometry>
        </mxCell>
        <mxCell id="qYbH3qcipkmsY9NSbLPy-2" value="&lt;font style=&quot;font-size: 18px;&quot;&gt;2&lt;/font&gt;" style="ellipse;whiteSpace=wrap;html=1;aspect=fixed;fontFamily=Times New Roman;" parent="1" vertex="1">
          <mxGeometry x="480" y="200" width="40" height="40" as="geometry" />
        </mxCell>
        <mxCell id="qYbH3qcipkmsY9NSbLPy-11" style="edgeStyle=orthogonalEdgeStyle;curved=1;rounded=0;orthogonalLoop=1;jettySize=auto;html=1;fontFamily=Times New Roman;" parent="1" source="qYbH3qcipkmsY9NSbLPy-3" target="qYbH3qcipkmsY9NSbLPy-2" edge="1">
          <mxGeometry relative="1" as="geometry">
            <Array as="points">
              <mxPoint x="490" y="300" />
              <mxPoint x="490" y="300" />
            </Array>
          </mxGeometry>
        </mxCell>
        <mxCell id="qYbH3qcipkmsY9NSbLPy-16" value="1/2" style="edgeLabel;html=1;align=center;verticalAlign=middle;resizable=0;points=[];fontFamily=Times New Roman;" parent="qYbH3qcipkmsY9NSbLPy-11" vertex="1" connectable="0">
          <mxGeometry x="0.0015" y="1" relative="1" as="geometry">
            <mxPoint as="offset" />
          </mxGeometry>
        </mxCell>
        <mxCell id="qYbH3qcipkmsY9NSbLPy-3" value="&lt;font style=&quot;font-size: 18px;&quot;&gt;3&lt;/font&gt;" style="ellipse;whiteSpace=wrap;html=1;aspect=fixed;fontFamily=Times New Roman;" parent="1" vertex="1">
          <mxGeometry x="480" y="360" width="40" height="40" as="geometry" />
        </mxCell>
        <mxCell id="qYbH3qcipkmsY9NSbLPy-14" style="edgeStyle=orthogonalEdgeStyle;curved=1;rounded=0;orthogonalLoop=1;jettySize=auto;html=1;entryX=0.5;entryY=1;entryDx=0;entryDy=0;fontFamily=Times New Roman;" parent="1" source="qYbH3qcipkmsY9NSbLPy-4" target="qYbH3qcipkmsY9NSbLPy-1" edge="1">
          <mxGeometry relative="1" as="geometry" />
        </mxCell>
        <mxCell id="qYbH3qcipkmsY9NSbLPy-15" value="1/2" style="edgeLabel;html=1;align=center;verticalAlign=middle;resizable=0;points=[];fontFamily=Times New Roman;" parent="qYbH3qcipkmsY9NSbLPy-14" vertex="1" connectable="0">
          <mxGeometry x="-0.0143" y="1" relative="1" as="geometry">
            <mxPoint as="offset" />
          </mxGeometry>
        </mxCell>
        <mxCell id="qYbH3qcipkmsY9NSbLPy-4" value="&lt;font style=&quot;font-size: 18px;&quot;&gt;4&lt;/font&gt;" style="ellipse;whiteSpace=wrap;html=1;aspect=fixed;fontFamily=Times New Roman;" parent="1" vertex="1">
          <mxGeometry x="320" y="360" width="40" height="40" as="geometry" />
        </mxCell>
        <mxCell id="qYbH3qcipkmsY9NSbLPy-5" style="edgeStyle=orthogonalEdgeStyle;curved=1;rounded=0;orthogonalLoop=1;jettySize=auto;html=1;entryX=0;entryY=0.5;entryDx=0;entryDy=0;fontFamily=Times New Roman;" parent="1" source="qYbH3qcipkmsY9NSbLPy-1" target="qYbH3qcipkmsY9NSbLPy-1" edge="1">
          <mxGeometry relative="1" as="geometry">
            <Array as="points">
              <mxPoint x="340" y="180" />
              <mxPoint x="300" y="180" />
              <mxPoint x="300" y="220" />
            </Array>
          </mxGeometry>
        </mxCell>
        <mxCell id="qYbH3qcipkmsY9NSbLPy-6" value="1" style="edgeLabel;html=1;align=center;verticalAlign=middle;resizable=0;points=[];fontFamily=Times New Roman;" parent="qYbH3qcipkmsY9NSbLPy-5" vertex="1" connectable="0">
          <mxGeometry x="0.1381" y="1" relative="1" as="geometry">
            <mxPoint as="offset" />
          </mxGeometry>
        </mxCell>
        <mxCell id="qYbH3qcipkmsY9NSbLPy-7" style="edgeStyle=orthogonalEdgeStyle;curved=1;rounded=0;orthogonalLoop=1;jettySize=auto;html=1;entryX=1;entryY=0.5;entryDx=0;entryDy=0;fontFamily=Times New Roman;" parent="1" source="qYbH3qcipkmsY9NSbLPy-2" target="qYbH3qcipkmsY9NSbLPy-2" edge="1">
          <mxGeometry relative="1" as="geometry" />
        </mxCell>
        <mxCell id="qYbH3qcipkmsY9NSbLPy-8" value="1/2" style="edgeLabel;html=1;align=center;verticalAlign=middle;resizable=0;points=[];fontFamily=Times New Roman;" parent="qYbH3qcipkmsY9NSbLPy-7" vertex="1" connectable="0">
          <mxGeometry x="-0.1" y="-4" relative="1" as="geometry">
            <mxPoint as="offset" />
          </mxGeometry>
        </mxCell>
        <mxCell id="qYbH3qcipkmsY9NSbLPy-12" style="edgeStyle=orthogonalEdgeStyle;curved=1;rounded=0;orthogonalLoop=1;jettySize=auto;html=1;entryX=0.5;entryY=1;entryDx=0;entryDy=0;exitX=1;exitY=0.5;exitDx=0;exitDy=0;fontFamily=Times New Roman;" parent="1" source="qYbH3qcipkmsY9NSbLPy-3" target="qYbH3qcipkmsY9NSbLPy-3" edge="1">
          <mxGeometry relative="1" as="geometry">
            <Array as="points">
              <mxPoint x="540" y="380" />
              <mxPoint x="540" y="420" />
              <mxPoint x="500" y="420" />
            </Array>
          </mxGeometry>
        </mxCell>
        <mxCell id="qYbH3qcipkmsY9NSbLPy-18" value="1/2" style="edgeLabel;html=1;align=center;verticalAlign=middle;resizable=0;points=[];fontFamily=Times New Roman;" parent="qYbH3qcipkmsY9NSbLPy-12" vertex="1" connectable="0">
          <mxGeometry x="-0.0968" y="-3" relative="1" as="geometry">
            <mxPoint as="offset" />
          </mxGeometry>
        </mxCell>
        <mxCell id="qYbH3qcipkmsY9NSbLPy-13" style="edgeStyle=orthogonalEdgeStyle;curved=1;rounded=0;orthogonalLoop=1;jettySize=auto;html=1;entryX=0;entryY=0.5;entryDx=0;entryDy=0;exitX=0.5;exitY=1;exitDx=0;exitDy=0;fontFamily=Times New Roman;" parent="1" source="qYbH3qcipkmsY9NSbLPy-4" target="qYbH3qcipkmsY9NSbLPy-4" edge="1">
          <mxGeometry relative="1" as="geometry">
            <Array as="points">
              <mxPoint x="340" y="420" />
              <mxPoint x="300" y="420" />
              <mxPoint x="300" y="380" />
            </Array>
          </mxGeometry>
        </mxCell>
        <mxCell id="qYbH3qcipkmsY9NSbLPy-19" value="1/2" style="edgeLabel;html=1;align=center;verticalAlign=middle;resizable=0;points=[];fontFamily=Times New Roman;" parent="qYbH3qcipkmsY9NSbLPy-13" vertex="1" connectable="0">
          <mxGeometry x="0.1206" y="-3" relative="1" as="geometry">
            <mxPoint as="offset" />
          </mxGeometry>
        </mxCell>
      </root>
    </mxGraphModel>
  </diagram>
  <diagram id="Eo8KabzVmJ5JmlabaYz7" name="Página-8">
    <mxGraphModel dx="596" dy="350" grid="1" gridSize="10" guides="1" tooltips="1" connect="1" arrows="1" fold="1" page="1" pageScale="1" pageWidth="850" pageHeight="1100" math="0" shadow="0">
      <root>
        <mxCell id="0" />
        <mxCell id="1" parent="0" />
        <mxCell id="gtxZ70sWAwrQgJawlTcu-6" style="edgeStyle=orthogonalEdgeStyle;curved=1;rounded=0;orthogonalLoop=1;jettySize=auto;html=1;fontFamily=Times New Roman;" edge="1" parent="1" source="gtxZ70sWAwrQgJawlTcu-1" target="gtxZ70sWAwrQgJawlTcu-2">
          <mxGeometry relative="1" as="geometry">
            <Array as="points">
              <mxPoint x="400" y="230" />
              <mxPoint x="400" y="230" />
            </Array>
          </mxGeometry>
        </mxCell>
        <mxCell id="gtxZ70sWAwrQgJawlTcu-12" value="1" style="edgeLabel;html=1;align=center;verticalAlign=middle;resizable=0;points=[];fontFamily=Times New Roman;" vertex="1" connectable="0" parent="gtxZ70sWAwrQgJawlTcu-6">
          <mxGeometry x="-0.0681" y="1" relative="1" as="geometry">
            <mxPoint as="offset" />
          </mxGeometry>
        </mxCell>
        <mxCell id="gtxZ70sWAwrQgJawlTcu-1" value="&lt;font style=&quot;font-size: 18px;&quot;&gt;1&lt;/font&gt;" style="ellipse;whiteSpace=wrap;html=1;aspect=fixed;fontFamily=Times New Roman;" vertex="1" parent="1">
          <mxGeometry x="320" y="200" width="40" height="40" as="geometry" />
        </mxCell>
        <mxCell id="gtxZ70sWAwrQgJawlTcu-8" style="edgeStyle=orthogonalEdgeStyle;curved=1;rounded=0;orthogonalLoop=1;jettySize=auto;html=1;exitX=0;exitY=1;exitDx=0;exitDy=0;fontFamily=Times New Roman;" edge="1" parent="1" source="gtxZ70sWAwrQgJawlTcu-2" target="gtxZ70sWAwrQgJawlTcu-3">
          <mxGeometry relative="1" as="geometry">
            <mxPoint x="460" y="270" as="sourcePoint" />
            <Array as="points">
              <mxPoint x="446" y="280" />
              <mxPoint x="446" y="280" />
            </Array>
          </mxGeometry>
        </mxCell>
        <mxCell id="gtxZ70sWAwrQgJawlTcu-15" value="1/2" style="edgeLabel;html=1;align=center;verticalAlign=middle;resizable=0;points=[];fontFamily=Times New Roman;" vertex="1" connectable="0" parent="gtxZ70sWAwrQgJawlTcu-8">
          <mxGeometry x="0.0712" relative="1" as="geometry">
            <mxPoint as="offset" />
          </mxGeometry>
        </mxCell>
        <mxCell id="gtxZ70sWAwrQgJawlTcu-9" style="edgeStyle=orthogonalEdgeStyle;curved=1;rounded=0;orthogonalLoop=1;jettySize=auto;html=1;exitX=0;exitY=0;exitDx=0;exitDy=0;entryX=1;entryY=0;entryDx=0;entryDy=0;fontFamily=Times New Roman;" edge="1" parent="1" source="gtxZ70sWAwrQgJawlTcu-2" target="gtxZ70sWAwrQgJawlTcu-1">
          <mxGeometry relative="1" as="geometry" />
        </mxCell>
        <mxCell id="gtxZ70sWAwrQgJawlTcu-13" value="1/4" style="edgeLabel;html=1;align=center;verticalAlign=middle;resizable=0;points=[];fontFamily=Times New Roman;" vertex="1" connectable="0" parent="gtxZ70sWAwrQgJawlTcu-9">
          <mxGeometry x="-0.0405" y="-1" relative="1" as="geometry">
            <mxPoint as="offset" />
          </mxGeometry>
        </mxCell>
        <mxCell id="gtxZ70sWAwrQgJawlTcu-2" value="&lt;font style=&quot;font-size: 18px;&quot;&gt;2&lt;/font&gt;" style="ellipse;whiteSpace=wrap;html=1;aspect=fixed;fontFamily=Times New Roman;" vertex="1" parent="1">
          <mxGeometry x="440" y="200" width="40" height="40" as="geometry" />
        </mxCell>
        <mxCell id="gtxZ70sWAwrQgJawlTcu-3" value="&lt;font style=&quot;font-size: 18px;&quot;&gt;3&lt;/font&gt;" style="ellipse;whiteSpace=wrap;html=1;aspect=fixed;fontFamily=Times New Roman;" vertex="1" parent="1">
          <mxGeometry x="440" y="320" width="40" height="40" as="geometry" />
        </mxCell>
        <mxCell id="gtxZ70sWAwrQgJawlTcu-7" style="edgeStyle=orthogonalEdgeStyle;curved=1;rounded=0;orthogonalLoop=1;jettySize=auto;html=1;entryX=1;entryY=0.5;entryDx=0;entryDy=0;fontFamily=Times New Roman;" edge="1" parent="1" source="gtxZ70sWAwrQgJawlTcu-2" target="gtxZ70sWAwrQgJawlTcu-2">
          <mxGeometry relative="1" as="geometry" />
        </mxCell>
        <mxCell id="gtxZ70sWAwrQgJawlTcu-14" value="1/4" style="edgeLabel;html=1;align=center;verticalAlign=middle;resizable=0;points=[];fontFamily=Times New Roman;" vertex="1" connectable="0" parent="gtxZ70sWAwrQgJawlTcu-7">
          <mxGeometry x="0.0937" y="-5" relative="1" as="geometry">
            <mxPoint as="offset" />
          </mxGeometry>
        </mxCell>
        <mxCell id="gtxZ70sWAwrQgJawlTcu-10" style="edgeStyle=orthogonalEdgeStyle;curved=1;rounded=0;orthogonalLoop=1;jettySize=auto;html=1;entryX=1;entryY=1;entryDx=0;entryDy=0;exitX=1;exitY=0;exitDx=0;exitDy=0;fontFamily=Times New Roman;" edge="1" parent="1" source="gtxZ70sWAwrQgJawlTcu-3" target="gtxZ70sWAwrQgJawlTcu-2">
          <mxGeometry relative="1" as="geometry" />
        </mxCell>
        <mxCell id="gtxZ70sWAwrQgJawlTcu-16" value="1/2" style="edgeLabel;html=1;align=center;verticalAlign=middle;resizable=0;points=[];fontFamily=Times New Roman;" vertex="1" connectable="0" parent="gtxZ70sWAwrQgJawlTcu-10">
          <mxGeometry x="0.0021" y="-1" relative="1" as="geometry">
            <mxPoint as="offset" />
          </mxGeometry>
        </mxCell>
        <mxCell id="gtxZ70sWAwrQgJawlTcu-17" style="edgeStyle=orthogonalEdgeStyle;curved=1;rounded=0;orthogonalLoop=1;jettySize=auto;html=1;entryX=1;entryY=0.5;entryDx=0;entryDy=0;exitX=0.5;exitY=1;exitDx=0;exitDy=0;fontFamily=Times New Roman;" edge="1" parent="1" source="gtxZ70sWAwrQgJawlTcu-3" target="gtxZ70sWAwrQgJawlTcu-3">
          <mxGeometry relative="1" as="geometry">
            <Array as="points">
              <mxPoint x="460" y="380" />
              <mxPoint x="500" y="380" />
              <mxPoint x="500" y="340" />
            </Array>
          </mxGeometry>
        </mxCell>
        <mxCell id="gtxZ70sWAwrQgJawlTcu-18" value="1/2" style="edgeLabel;html=1;align=center;verticalAlign=middle;resizable=0;points=[];fontFamily=Times New Roman;" vertex="1" connectable="0" parent="gtxZ70sWAwrQgJawlTcu-17">
          <mxGeometry x="-0.1437" y="4" relative="1" as="geometry">
            <mxPoint as="offset" />
          </mxGeometry>
        </mxCell>
      </root>
    </mxGraphModel>
  </diagram>
  <diagram id="ohovF4YCg2Pn2P--0bKy" name="Página-9">
    <mxGraphModel dx="596" dy="350" grid="1" gridSize="10" guides="1" tooltips="1" connect="1" arrows="1" fold="1" page="1" pageScale="1" pageWidth="850" pageHeight="1100" math="0" shadow="0">
      <root>
        <mxCell id="0" />
        <mxCell id="1" parent="0" />
        <mxCell id="uEa5Ivw2jKW0INh5rkHT-10" style="edgeStyle=none;rounded=0;orthogonalLoop=1;jettySize=auto;html=1;exitX=1;exitY=1;exitDx=0;exitDy=0;fontFamily=Times New Roman;" edge="1" parent="1" source="uEa5Ivw2jKW0INh5rkHT-1" target="uEa5Ivw2jKW0INh5rkHT-2">
          <mxGeometry relative="1" as="geometry" />
        </mxCell>
        <mxCell id="uEa5Ivw2jKW0INh5rkHT-35" value="0.1" style="edgeLabel;html=1;align=center;verticalAlign=middle;resizable=0;points=[];fontFamily=Times New Roman;" vertex="1" connectable="0" parent="uEa5Ivw2jKW0INh5rkHT-10">
          <mxGeometry x="-0.2227" y="1" relative="1" as="geometry">
            <mxPoint as="offset" />
          </mxGeometry>
        </mxCell>
        <mxCell id="uEa5Ivw2jKW0INh5rkHT-11" style="edgeStyle=none;rounded=0;orthogonalLoop=1;jettySize=auto;html=1;exitX=0;exitY=1;exitDx=0;exitDy=0;fontFamily=Times New Roman;" edge="1" parent="1" source="uEa5Ivw2jKW0INh5rkHT-1" target="uEa5Ivw2jKW0INh5rkHT-3">
          <mxGeometry relative="1" as="geometry" />
        </mxCell>
        <mxCell id="uEa5Ivw2jKW0INh5rkHT-36" value="0.5" style="edgeLabel;html=1;align=center;verticalAlign=middle;resizable=0;points=[];fontFamily=Times New Roman;" vertex="1" connectable="0" parent="uEa5Ivw2jKW0INh5rkHT-11">
          <mxGeometry x="-0.0973" y="3" relative="1" as="geometry">
            <mxPoint as="offset" />
          </mxGeometry>
        </mxCell>
        <mxCell id="uEa5Ivw2jKW0INh5rkHT-1" value="&lt;font style=&quot;font-size: 18px;&quot;&gt;1&lt;/font&gt;" style="ellipse;whiteSpace=wrap;html=1;aspect=fixed;fontFamily=Times New Roman;" vertex="1" parent="1">
          <mxGeometry x="280" y="200" width="40" height="40" as="geometry" />
        </mxCell>
        <mxCell id="uEa5Ivw2jKW0INh5rkHT-12" style="edgeStyle=none;rounded=0;orthogonalLoop=1;jettySize=auto;html=1;fontFamily=Times New Roman;" edge="1" parent="1">
          <mxGeometry relative="1" as="geometry">
            <mxPoint x="360.0000000000001" y="290" as="sourcePoint" />
            <mxPoint x="240.0000000000001" y="290" as="targetPoint" />
          </mxGeometry>
        </mxCell>
        <mxCell id="uEa5Ivw2jKW0INh5rkHT-38" value="0.2" style="edgeLabel;html=1;align=center;verticalAlign=middle;resizable=0;points=[];fontFamily=Times New Roman;" vertex="1" connectable="0" parent="uEa5Ivw2jKW0INh5rkHT-12">
          <mxGeometry x="-0.5034" relative="1" as="geometry">
            <mxPoint as="offset" />
          </mxGeometry>
        </mxCell>
        <mxCell id="uEa5Ivw2jKW0INh5rkHT-16" style="edgeStyle=orthogonalEdgeStyle;curved=1;rounded=0;orthogonalLoop=1;jettySize=auto;html=1;entryX=1;entryY=0.5;entryDx=0;entryDy=0;exitX=0.5;exitY=1;exitDx=0;exitDy=0;fontFamily=Times New Roman;" edge="1" parent="1" source="uEa5Ivw2jKW0INh5rkHT-2" target="uEa5Ivw2jKW0INh5rkHT-4">
          <mxGeometry relative="1" as="geometry" />
        </mxCell>
        <mxCell id="uEa5Ivw2jKW0INh5rkHT-39" value="0.3" style="edgeLabel;html=1;align=center;verticalAlign=middle;resizable=0;points=[];fontFamily=Times New Roman;" vertex="1" connectable="0" parent="uEa5Ivw2jKW0INh5rkHT-16">
          <mxGeometry x="-0.3391" y="-9" relative="1" as="geometry">
            <mxPoint as="offset" />
          </mxGeometry>
        </mxCell>
        <mxCell id="uEa5Ivw2jKW0INh5rkHT-2" value="&lt;font style=&quot;font-size: 18px;&quot;&gt;2&lt;/font&gt;" style="ellipse;whiteSpace=wrap;html=1;aspect=fixed;fontFamily=Times New Roman;" vertex="1" parent="1">
          <mxGeometry x="360" y="280" width="40" height="40" as="geometry" />
        </mxCell>
        <mxCell id="uEa5Ivw2jKW0INh5rkHT-13" style="edgeStyle=orthogonalEdgeStyle;curved=1;rounded=0;orthogonalLoop=1;jettySize=auto;html=1;entryX=0;entryY=0;entryDx=0;entryDy=0;exitX=0.5;exitY=0;exitDx=0;exitDy=0;fontFamily=Times New Roman;" edge="1" parent="1" source="uEa5Ivw2jKW0INh5rkHT-3" target="uEa5Ivw2jKW0INh5rkHT-1">
          <mxGeometry relative="1" as="geometry">
            <Array as="points">
              <mxPoint x="220" y="206" />
            </Array>
          </mxGeometry>
        </mxCell>
        <mxCell id="uEa5Ivw2jKW0INh5rkHT-40" value="0.4" style="edgeLabel;html=1;align=center;verticalAlign=middle;resizable=0;points=[];fontFamily=Times New Roman;" vertex="1" connectable="0" parent="uEa5Ivw2jKW0INh5rkHT-13">
          <mxGeometry x="-0.2558" y="-14" relative="1" as="geometry">
            <mxPoint as="offset" />
          </mxGeometry>
        </mxCell>
        <mxCell id="uEa5Ivw2jKW0INh5rkHT-17" style="edgeStyle=orthogonalEdgeStyle;curved=1;rounded=0;orthogonalLoop=1;jettySize=auto;html=1;entryX=0;entryY=0.5;entryDx=0;entryDy=0;exitX=0.5;exitY=1;exitDx=0;exitDy=0;fontFamily=Times New Roman;" edge="1" parent="1" source="uEa5Ivw2jKW0INh5rkHT-3" target="uEa5Ivw2jKW0INh5rkHT-4">
          <mxGeometry relative="1" as="geometry" />
        </mxCell>
        <mxCell id="uEa5Ivw2jKW0INh5rkHT-43" value="0.4" style="edgeLabel;html=1;align=center;verticalAlign=middle;resizable=0;points=[];fontFamily=Times New Roman;" vertex="1" connectable="0" parent="uEa5Ivw2jKW0INh5rkHT-17">
          <mxGeometry x="-0.2471" y="12" relative="1" as="geometry">
            <mxPoint as="offset" />
          </mxGeometry>
        </mxCell>
        <mxCell id="uEa5Ivw2jKW0INh5rkHT-41" style="edgeStyle=none;rounded=0;orthogonalLoop=1;jettySize=auto;html=1;fontFamily=Times New Roman;" edge="1" parent="1">
          <mxGeometry relative="1" as="geometry">
            <mxPoint x="240.0000000000001" y="310" as="sourcePoint" />
            <mxPoint x="360.0000000000001" y="310" as="targetPoint" />
          </mxGeometry>
        </mxCell>
        <mxCell id="uEa5Ivw2jKW0INh5rkHT-42" value="0.2" style="edgeLabel;html=1;align=center;verticalAlign=middle;resizable=0;points=[];fontFamily=Times New Roman;" vertex="1" connectable="0" parent="uEa5Ivw2jKW0INh5rkHT-41">
          <mxGeometry x="-0.5425" relative="1" as="geometry">
            <mxPoint as="offset" />
          </mxGeometry>
        </mxCell>
        <mxCell id="uEa5Ivw2jKW0INh5rkHT-3" value="&lt;font style=&quot;font-size: 18px;&quot;&gt;3&lt;/font&gt;" style="ellipse;whiteSpace=wrap;html=1;aspect=fixed;fontFamily=Times New Roman;" vertex="1" parent="1">
          <mxGeometry x="200" y="280" width="40" height="40" as="geometry" />
        </mxCell>
        <mxCell id="uEa5Ivw2jKW0INh5rkHT-30" style="edgeStyle=none;rounded=0;orthogonalLoop=1;jettySize=auto;html=1;exitX=1;exitY=0;exitDx=0;exitDy=0;fontFamily=Times New Roman;" edge="1" parent="1" source="uEa5Ivw2jKW0INh5rkHT-4" target="uEa5Ivw2jKW0INh5rkHT-2">
          <mxGeometry relative="1" as="geometry" />
        </mxCell>
        <mxCell id="uEa5Ivw2jKW0INh5rkHT-45" value="0.1" style="edgeLabel;html=1;align=center;verticalAlign=middle;resizable=0;points=[];fontFamily=Times New Roman;" vertex="1" connectable="0" parent="uEa5Ivw2jKW0INh5rkHT-30">
          <mxGeometry x="-0.0493" y="-4" relative="1" as="geometry">
            <mxPoint y="-1" as="offset" />
          </mxGeometry>
        </mxCell>
        <mxCell id="uEa5Ivw2jKW0INh5rkHT-32" style="edgeStyle=none;rounded=0;orthogonalLoop=1;jettySize=auto;html=1;exitX=0;exitY=0;exitDx=0;exitDy=0;fontFamily=Times New Roman;" edge="1" parent="1" source="uEa5Ivw2jKW0INh5rkHT-4" target="uEa5Ivw2jKW0INh5rkHT-3">
          <mxGeometry relative="1" as="geometry" />
        </mxCell>
        <mxCell id="uEa5Ivw2jKW0INh5rkHT-46" value="0.3" style="edgeLabel;html=1;align=center;verticalAlign=middle;resizable=0;points=[];fontFamily=Times New Roman;" vertex="1" connectable="0" parent="uEa5Ivw2jKW0INh5rkHT-32">
          <mxGeometry x="-0.2707" y="1" relative="1" as="geometry">
            <mxPoint as="offset" />
          </mxGeometry>
        </mxCell>
        <mxCell id="uEa5Ivw2jKW0INh5rkHT-33" style="edgeStyle=none;rounded=0;orthogonalLoop=1;jettySize=auto;html=1;entryX=0.5;entryY=1;entryDx=0;entryDy=0;fontFamily=Times New Roman;" edge="1" parent="1" source="uEa5Ivw2jKW0INh5rkHT-4" target="uEa5Ivw2jKW0INh5rkHT-1">
          <mxGeometry relative="1" as="geometry" />
        </mxCell>
        <mxCell id="uEa5Ivw2jKW0INh5rkHT-44" value="0.5" style="edgeLabel;html=1;align=center;verticalAlign=middle;resizable=0;points=[];fontFamily=Times New Roman;" vertex="1" connectable="0" parent="uEa5Ivw2jKW0INh5rkHT-33">
          <mxGeometry x="-0.6149" y="2" relative="1" as="geometry">
            <mxPoint as="offset" />
          </mxGeometry>
        </mxCell>
        <mxCell id="uEa5Ivw2jKW0INh5rkHT-4" value="&lt;font style=&quot;font-size: 18px;&quot;&gt;4&lt;/font&gt;" style="ellipse;whiteSpace=wrap;html=1;aspect=fixed;fontFamily=Times New Roman;" vertex="1" parent="1">
          <mxGeometry x="280" y="360" width="40" height="40" as="geometry" />
        </mxCell>
        <mxCell id="uEa5Ivw2jKW0INh5rkHT-6" style="edgeStyle=orthogonalEdgeStyle;curved=1;rounded=0;orthogonalLoop=1;jettySize=auto;html=1;entryX=1;entryY=0.5;entryDx=0;entryDy=0;fontFamily=Times New Roman;" edge="1" parent="1" source="uEa5Ivw2jKW0INh5rkHT-1" target="uEa5Ivw2jKW0INh5rkHT-1">
          <mxGeometry relative="1" as="geometry" />
        </mxCell>
        <mxCell id="uEa5Ivw2jKW0INh5rkHT-34" value="0.4" style="edgeLabel;html=1;align=center;verticalAlign=middle;resizable=0;points=[];fontFamily=Times New Roman;" vertex="1" connectable="0" parent="uEa5Ivw2jKW0INh5rkHT-6">
          <mxGeometry x="0.0977" y="-4" relative="1" as="geometry">
            <mxPoint as="offset" />
          </mxGeometry>
        </mxCell>
        <mxCell id="uEa5Ivw2jKW0INh5rkHT-7" style="edgeStyle=orthogonalEdgeStyle;curved=1;rounded=0;orthogonalLoop=1;jettySize=auto;html=1;entryX=1;entryY=0.5;entryDx=0;entryDy=0;fontFamily=Times New Roman;" edge="1" parent="1" source="uEa5Ivw2jKW0INh5rkHT-2" target="uEa5Ivw2jKW0INh5rkHT-2">
          <mxGeometry relative="1" as="geometry" />
        </mxCell>
        <mxCell id="uEa5Ivw2jKW0INh5rkHT-37" value="0.5" style="edgeLabel;html=1;align=center;verticalAlign=middle;resizable=0;points=[];fontFamily=Times New Roman;" vertex="1" connectable="0" parent="uEa5Ivw2jKW0INh5rkHT-7">
          <mxGeometry x="0.1552" y="-4" relative="1" as="geometry">
            <mxPoint as="offset" />
          </mxGeometry>
        </mxCell>
        <mxCell id="uEa5Ivw2jKW0INh5rkHT-14" style="edgeStyle=orthogonalEdgeStyle;curved=1;rounded=0;orthogonalLoop=1;jettySize=auto;html=1;exitX=1;exitY=1;exitDx=0;exitDy=0;entryX=0;entryY=1;entryDx=0;entryDy=0;fontFamily=Times New Roman;" edge="1" parent="1" source="uEa5Ivw2jKW0INh5rkHT-4" target="uEa5Ivw2jKW0INh5rkHT-4">
          <mxGeometry relative="1" as="geometry">
            <Array as="points">
              <mxPoint x="314" y="430" />
              <mxPoint x="286" y="430" />
            </Array>
          </mxGeometry>
        </mxCell>
        <mxCell id="uEa5Ivw2jKW0INh5rkHT-47" value="0.1" style="edgeLabel;html=1;align=center;verticalAlign=middle;resizable=0;points=[];fontFamily=Times New Roman;" vertex="1" connectable="0" parent="uEa5Ivw2jKW0INh5rkHT-14">
          <mxGeometry x="0.0166" y="-1" relative="1" as="geometry">
            <mxPoint as="offset" />
          </mxGeometry>
        </mxCell>
      </root>
    </mxGraphModel>
  </diagram>
  <diagram id="HwArkDnuhop6t92YfIyF" name="Página-10">
    <mxGraphModel dx="596" dy="350" grid="1" gridSize="10" guides="1" tooltips="1" connect="1" arrows="1" fold="1" page="1" pageScale="1" pageWidth="850" pageHeight="1100" math="0" shadow="0">
      <root>
        <mxCell id="0" />
        <mxCell id="1" parent="0" />
        <mxCell id="pFxeFoK42RTtltM-72FK-34" style="edgeStyle=orthogonalEdgeStyle;curved=1;rounded=0;orthogonalLoop=1;jettySize=auto;html=1;entryX=0.5;entryY=0;entryDx=0;entryDy=0;fontFamily=Times New Roman;" edge="1" parent="1" source="pFxeFoK42RTtltM-72FK-5" target="pFxeFoK42RTtltM-72FK-10">
          <mxGeometry relative="1" as="geometry" />
        </mxCell>
        <mxCell id="z36WAlssScHdtPcCLH4H-7" value="0.1" style="edgeLabel;html=1;align=center;verticalAlign=middle;resizable=0;points=[];fontFamily=Times New Roman;" vertex="1" connectable="0" parent="pFxeFoK42RTtltM-72FK-34">
          <mxGeometry x="0.3391" y="-10" relative="1" as="geometry">
            <mxPoint as="offset" />
          </mxGeometry>
        </mxCell>
        <mxCell id="pFxeFoK42RTtltM-72FK-35" style="edgeStyle=orthogonalEdgeStyle;curved=1;rounded=0;orthogonalLoop=1;jettySize=auto;html=1;fontFamily=Times New Roman;" edge="1" parent="1" source="pFxeFoK42RTtltM-72FK-5" target="pFxeFoK42RTtltM-72FK-17">
          <mxGeometry relative="1" as="geometry" />
        </mxCell>
        <mxCell id="z36WAlssScHdtPcCLH4H-8" value="0.4" style="edgeLabel;html=1;align=center;verticalAlign=middle;resizable=0;points=[];fontFamily=Times New Roman;" vertex="1" connectable="0" parent="pFxeFoK42RTtltM-72FK-35">
          <mxGeometry x="0.2701" y="14" relative="1" as="geometry">
            <mxPoint as="offset" />
          </mxGeometry>
        </mxCell>
        <mxCell id="pFxeFoK42RTtltM-72FK-36" style="rounded=0;orthogonalLoop=1;jettySize=auto;html=1;entryX=0.5;entryY=0;entryDx=0;entryDy=0;fontFamily=Times New Roman;" edge="1" parent="1">
          <mxGeometry relative="1" as="geometry">
            <mxPoint x="430" y="100" as="sourcePoint" />
            <mxPoint x="430" y="220" as="targetPoint" />
          </mxGeometry>
        </mxCell>
        <mxCell id="z36WAlssScHdtPcCLH4H-9" value="0.1" style="edgeLabel;html=1;align=center;verticalAlign=middle;resizable=0;points=[];fontFamily=Times New Roman;" vertex="1" connectable="0" parent="pFxeFoK42RTtltM-72FK-36">
          <mxGeometry x="-0.6724" y="-1" relative="1" as="geometry">
            <mxPoint as="offset" />
          </mxGeometry>
        </mxCell>
        <mxCell id="pFxeFoK42RTtltM-72FK-5" value="&lt;font style=&quot;font-size: 18px;&quot;&gt;1&lt;/font&gt;" style="ellipse;whiteSpace=wrap;html=1;aspect=fixed;fontFamily=Times New Roman;" vertex="1" parent="1">
          <mxGeometry x="420" y="60" width="40" height="40" as="geometry" />
        </mxCell>
        <mxCell id="pFxeFoK42RTtltM-72FK-37" style="rounded=0;orthogonalLoop=1;jettySize=auto;html=1;exitX=0;exitY=0;exitDx=0;exitDy=0;entryX=1;entryY=1;entryDx=0;entryDy=0;fontFamily=Times New Roman;" edge="1" parent="1" source="pFxeFoK42RTtltM-72FK-10" target="pFxeFoK42RTtltM-72FK-5">
          <mxGeometry relative="1" as="geometry" />
        </mxCell>
        <mxCell id="z36WAlssScHdtPcCLH4H-10" value="0.1" style="edgeLabel;html=1;align=center;verticalAlign=middle;resizable=0;points=[];fontFamily=Times New Roman;" vertex="1" connectable="0" parent="pFxeFoK42RTtltM-72FK-37">
          <mxGeometry x="-0.4574" y="-1" relative="1" as="geometry">
            <mxPoint as="offset" />
          </mxGeometry>
        </mxCell>
        <mxCell id="pFxeFoK42RTtltM-72FK-38" style="edgeStyle=orthogonalEdgeStyle;curved=1;rounded=0;orthogonalLoop=1;jettySize=auto;html=1;fontFamily=Times New Roman;" edge="1" parent="1" source="pFxeFoK42RTtltM-72FK-10" target="pFxeFoK42RTtltM-72FK-17">
          <mxGeometry relative="1" as="geometry" />
        </mxCell>
        <mxCell id="z36WAlssScHdtPcCLH4H-11" value="0.2" style="edgeLabel;html=1;align=center;verticalAlign=middle;resizable=0;points=[];fontFamily=Times New Roman;" vertex="1" connectable="0" parent="pFxeFoK42RTtltM-72FK-38">
          <mxGeometry x="-0.6644" y="2" relative="1" as="geometry">
            <mxPoint as="offset" />
          </mxGeometry>
        </mxCell>
        <mxCell id="pFxeFoK42RTtltM-72FK-39" style="edgeStyle=orthogonalEdgeStyle;curved=1;rounded=0;orthogonalLoop=1;jettySize=auto;html=1;entryX=1;entryY=0.5;entryDx=0;entryDy=0;fontFamily=Times New Roman;" edge="1" parent="1" source="pFxeFoK42RTtltM-72FK-10" target="pFxeFoK42RTtltM-72FK-24">
          <mxGeometry relative="1" as="geometry">
            <Array as="points">
              <mxPoint x="520" y="240" />
            </Array>
          </mxGeometry>
        </mxCell>
        <mxCell id="z36WAlssScHdtPcCLH4H-12" value="0.5" style="edgeLabel;html=1;align=center;verticalAlign=middle;resizable=0;points=[];fontFamily=Times New Roman;" vertex="1" connectable="0" parent="pFxeFoK42RTtltM-72FK-39">
          <mxGeometry x="-0.3276" y="-10" relative="1" as="geometry">
            <mxPoint as="offset" />
          </mxGeometry>
        </mxCell>
        <mxCell id="pFxeFoK42RTtltM-72FK-10" value="&lt;font style=&quot;font-size: 18px;&quot;&gt;2&lt;/font&gt;" style="ellipse;whiteSpace=wrap;html=1;aspect=fixed;fontFamily=Times New Roman;" vertex="1" parent="1">
          <mxGeometry x="500" y="140" width="40" height="40" as="geometry" />
        </mxCell>
        <mxCell id="pFxeFoK42RTtltM-72FK-40" style="rounded=0;orthogonalLoop=1;jettySize=auto;html=1;exitX=1;exitY=0;exitDx=0;exitDy=0;entryX=0;entryY=1;entryDx=0;entryDy=0;fontFamily=Times New Roman;" edge="1" parent="1" source="pFxeFoK42RTtltM-72FK-17" target="pFxeFoK42RTtltM-72FK-5">
          <mxGeometry relative="1" as="geometry" />
        </mxCell>
        <mxCell id="z36WAlssScHdtPcCLH4H-13" value="0.6" style="edgeLabel;html=1;align=center;verticalAlign=middle;resizable=0;points=[];fontFamily=Times New Roman;" vertex="1" connectable="0" parent="pFxeFoK42RTtltM-72FK-40">
          <mxGeometry x="-0.1027" y="-3" relative="1" as="geometry">
            <mxPoint as="offset" />
          </mxGeometry>
        </mxCell>
        <mxCell id="pFxeFoK42RTtltM-72FK-41" style="edgeStyle=orthogonalEdgeStyle;curved=1;rounded=0;orthogonalLoop=1;jettySize=auto;html=1;entryX=0;entryY=0.5;entryDx=0;entryDy=0;fontFamily=Times New Roman;" edge="1" parent="1" source="pFxeFoK42RTtltM-72FK-17" target="pFxeFoK42RTtltM-72FK-24">
          <mxGeometry relative="1" as="geometry">
            <Array as="points">
              <mxPoint x="360" y="240" />
            </Array>
          </mxGeometry>
        </mxCell>
        <mxCell id="z36WAlssScHdtPcCLH4H-14" value="0.2" style="edgeLabel;html=1;align=center;verticalAlign=middle;resizable=0;points=[];fontFamily=Times New Roman;" vertex="1" connectable="0" parent="pFxeFoK42RTtltM-72FK-41">
          <mxGeometry x="-0.3391" y="10" relative="1" as="geometry">
            <mxPoint as="offset" />
          </mxGeometry>
        </mxCell>
        <mxCell id="pFxeFoK42RTtltM-72FK-17" value="&lt;font style=&quot;font-size: 18px;&quot;&gt;3&lt;/font&gt;" style="ellipse;whiteSpace=wrap;html=1;aspect=fixed;fontFamily=Times New Roman;" vertex="1" parent="1">
          <mxGeometry x="340" y="140" width="40" height="40" as="geometry" />
        </mxCell>
        <mxCell id="pFxeFoK42RTtltM-72FK-42" style="edgeStyle=orthogonalEdgeStyle;curved=1;rounded=0;orthogonalLoop=1;jettySize=auto;html=1;entryX=0.5;entryY=1;entryDx=0;entryDy=0;fontFamily=Times New Roman;" edge="1" parent="1">
          <mxGeometry relative="1" as="geometry">
            <mxPoint x="450" y="220" as="sourcePoint" />
            <mxPoint x="450" y="100" as="targetPoint" />
          </mxGeometry>
        </mxCell>
        <mxCell id="z36WAlssScHdtPcCLH4H-15" value="0.2" style="edgeLabel;html=1;align=center;verticalAlign=middle;resizable=0;points=[];fontFamily=Times New Roman;" vertex="1" connectable="0" parent="pFxeFoK42RTtltM-72FK-42">
          <mxGeometry x="-0.6839" y="-2" relative="1" as="geometry">
            <mxPoint as="offset" />
          </mxGeometry>
        </mxCell>
        <mxCell id="pFxeFoK42RTtltM-72FK-43" style="rounded=0;orthogonalLoop=1;jettySize=auto;html=1;exitX=1;exitY=0;exitDx=0;exitDy=0;entryX=0;entryY=1;entryDx=0;entryDy=0;fontFamily=Times New Roman;" edge="1" parent="1" source="pFxeFoK42RTtltM-72FK-24" target="pFxeFoK42RTtltM-72FK-10">
          <mxGeometry relative="1" as="geometry" />
        </mxCell>
        <mxCell id="z36WAlssScHdtPcCLH4H-17" value="0.4" style="edgeLabel;html=1;align=center;verticalAlign=middle;resizable=0;points=[];fontFamily=Times New Roman;" vertex="1" connectable="0" parent="pFxeFoK42RTtltM-72FK-43">
          <mxGeometry x="-0.0093" y="1" relative="1" as="geometry">
            <mxPoint as="offset" />
          </mxGeometry>
        </mxCell>
        <mxCell id="pFxeFoK42RTtltM-72FK-44" style="rounded=0;orthogonalLoop=1;jettySize=auto;html=1;exitX=0;exitY=0;exitDx=0;exitDy=0;entryX=1;entryY=1;entryDx=0;entryDy=0;fontFamily=Times New Roman;" edge="1" parent="1" source="pFxeFoK42RTtltM-72FK-24" target="pFxeFoK42RTtltM-72FK-17">
          <mxGeometry relative="1" as="geometry" />
        </mxCell>
        <mxCell id="z36WAlssScHdtPcCLH4H-16" value="0.1" style="edgeLabel;html=1;align=center;verticalAlign=middle;resizable=0;points=[];fontFamily=Times New Roman;" vertex="1" connectable="0" parent="pFxeFoK42RTtltM-72FK-44">
          <mxGeometry x="-0.0173" y="-2" relative="1" as="geometry">
            <mxPoint as="offset" />
          </mxGeometry>
        </mxCell>
        <mxCell id="pFxeFoK42RTtltM-72FK-24" value="&lt;font style=&quot;font-size: 18px;&quot;&gt;4&lt;/font&gt;" style="ellipse;whiteSpace=wrap;html=1;aspect=fixed;fontFamily=Times New Roman;" vertex="1" parent="1">
          <mxGeometry x="420" y="220" width="40" height="40" as="geometry" />
        </mxCell>
        <mxCell id="pFxeFoK42RTtltM-72FK-29" style="edgeStyle=orthogonalEdgeStyle;curved=1;rounded=0;orthogonalLoop=1;jettySize=auto;html=1;exitX=1;exitY=1;exitDx=0;exitDy=0;entryX=0;entryY=1;entryDx=0;entryDy=0;fontFamily=Times New Roman;" edge="1" parent="1" source="pFxeFoK42RTtltM-72FK-24" target="pFxeFoK42RTtltM-72FK-24">
          <mxGeometry relative="1" as="geometry">
            <Array as="points">
              <mxPoint x="454" y="290" />
              <mxPoint x="426" y="290" />
            </Array>
          </mxGeometry>
        </mxCell>
        <mxCell id="z36WAlssScHdtPcCLH4H-4" value="0.2" style="edgeLabel;html=1;align=center;verticalAlign=middle;resizable=0;points=[];fontFamily=Times New Roman;" vertex="1" connectable="0" parent="pFxeFoK42RTtltM-72FK-29">
          <mxGeometry x="-0.0525" y="3" relative="1" as="geometry">
            <mxPoint as="offset" />
          </mxGeometry>
        </mxCell>
        <mxCell id="z36WAlssScHdtPcCLH4H-6" value="0.3" style="edgeLabel;html=1;align=center;verticalAlign=middle;resizable=0;points=[];fontFamily=Times New Roman;" vertex="1" connectable="0" parent="pFxeFoK42RTtltM-72FK-29">
          <mxGeometry x="-0.0801" y="1" relative="1" as="geometry">
            <mxPoint as="offset" />
          </mxGeometry>
        </mxCell>
        <mxCell id="pFxeFoK42RTtltM-72FK-31" style="edgeStyle=orthogonalEdgeStyle;rounded=0;orthogonalLoop=1;jettySize=auto;html=1;exitX=0;exitY=0;exitDx=0;exitDy=0;entryX=1;entryY=0;entryDx=0;entryDy=0;curved=1;fontFamily=Times New Roman;" edge="1" parent="1" source="pFxeFoK42RTtltM-72FK-5" target="pFxeFoK42RTtltM-72FK-5">
          <mxGeometry relative="1" as="geometry">
            <Array as="points">
              <mxPoint x="426" y="30" />
              <mxPoint x="454" y="30" />
            </Array>
          </mxGeometry>
        </mxCell>
        <mxCell id="z36WAlssScHdtPcCLH4H-2" value="0.4" style="edgeLabel;html=1;align=center;verticalAlign=middle;resizable=0;points=[];fontFamily=Times New Roman;" vertex="1" connectable="0" parent="pFxeFoK42RTtltM-72FK-31">
          <mxGeometry x="0.0525" y="-3" relative="1" as="geometry">
            <mxPoint as="offset" />
          </mxGeometry>
        </mxCell>
        <mxCell id="pFxeFoK42RTtltM-72FK-32" style="edgeStyle=orthogonalEdgeStyle;curved=1;rounded=0;orthogonalLoop=1;jettySize=auto;html=1;exitX=1;exitY=0;exitDx=0;exitDy=0;entryX=1;entryY=1;entryDx=0;entryDy=0;fontFamily=Times New Roman;" edge="1" parent="1" source="pFxeFoK42RTtltM-72FK-10" target="pFxeFoK42RTtltM-72FK-10">
          <mxGeometry relative="1" as="geometry">
            <Array as="points">
              <mxPoint x="570" y="146" />
              <mxPoint x="570" y="174" />
            </Array>
          </mxGeometry>
        </mxCell>
        <mxCell id="z36WAlssScHdtPcCLH4H-3" value="0.2" style="edgeLabel;html=1;align=center;verticalAlign=middle;resizable=0;points=[];fontFamily=Times New Roman;" vertex="1" connectable="0" parent="pFxeFoK42RTtltM-72FK-32">
          <mxGeometry x="0.0207" relative="1" as="geometry">
            <mxPoint as="offset" />
          </mxGeometry>
        </mxCell>
        <mxCell id="pFxeFoK42RTtltM-72FK-33" style="edgeStyle=orthogonalEdgeStyle;curved=1;rounded=0;orthogonalLoop=1;jettySize=auto;html=1;exitX=0;exitY=1;exitDx=0;exitDy=0;entryX=0;entryY=0;entryDx=0;entryDy=0;fontFamily=Times New Roman;" edge="1" parent="1" source="pFxeFoK42RTtltM-72FK-17" target="pFxeFoK42RTtltM-72FK-17">
          <mxGeometry relative="1" as="geometry">
            <Array as="points">
              <mxPoint x="310" y="174" />
              <mxPoint x="310" y="146" />
            </Array>
          </mxGeometry>
        </mxCell>
        <mxCell id="z36WAlssScHdtPcCLH4H-5" value="0.2" style="edgeLabel;html=1;align=center;verticalAlign=middle;resizable=0;points=[];fontFamily=Times New Roman;" vertex="1" connectable="0" parent="pFxeFoK42RTtltM-72FK-33">
          <mxGeometry x="0.0622" y="1" relative="1" as="geometry">
            <mxPoint as="offset" />
          </mxGeometry>
        </mxCell>
      </root>
    </mxGraphModel>
  </diagram>
  <diagram id="OL0eNuU8FS0lir_PnNTf" name="Página-11">
    <mxGraphModel dx="596" dy="350" grid="1" gridSize="10" guides="1" tooltips="1" connect="1" arrows="1" fold="1" page="1" pageScale="1" pageWidth="850" pageHeight="1100" math="0" shadow="0">
      <root>
        <mxCell id="0" />
        <mxCell id="1" parent="0" />
        <mxCell id="8Ze-pYdy-Ybz8uDOqXVo-23" style="edgeStyle=orthogonalEdgeStyle;curved=1;rounded=0;orthogonalLoop=1;jettySize=auto;html=1;fontFamily=Times New Roman;" edge="1" parent="1" source="8Ze-pYdy-Ybz8uDOqXVo-3" target="8Ze-pYdy-Ybz8uDOqXVo-9">
          <mxGeometry relative="1" as="geometry" />
        </mxCell>
        <mxCell id="8Ze-pYdy-Ybz8uDOqXVo-30" value="3/4" style="edgeLabel;html=1;align=center;verticalAlign=middle;resizable=0;points=[];fontFamily=Times New Roman;" vertex="1" connectable="0" parent="8Ze-pYdy-Ybz8uDOqXVo-23">
          <mxGeometry x="0.0043" y="-17" relative="1" as="geometry">
            <mxPoint x="7" y="20" as="offset" />
          </mxGeometry>
        </mxCell>
        <mxCell id="8Ze-pYdy-Ybz8uDOqXVo-3" value="&lt;font style=&quot;font-size: 18px;&quot;&gt;1&lt;/font&gt;" style="ellipse;whiteSpace=wrap;html=1;aspect=fixed;fontFamily=Times New Roman;" vertex="1" parent="1">
          <mxGeometry x="320" y="280" width="40" height="40" as="geometry" />
        </mxCell>
        <mxCell id="8Ze-pYdy-Ybz8uDOqXVo-26" style="edgeStyle=orthogonalEdgeStyle;curved=1;rounded=0;orthogonalLoop=1;jettySize=auto;html=1;entryX=0;entryY=0.5;entryDx=0;entryDy=0;fontFamily=Times New Roman;" edge="1" parent="1" source="8Ze-pYdy-Ybz8uDOqXVo-8" target="8Ze-pYdy-Ybz8uDOqXVo-3">
          <mxGeometry relative="1" as="geometry">
            <Array as="points">
              <mxPoint x="260" y="300" />
            </Array>
          </mxGeometry>
        </mxCell>
        <mxCell id="8Ze-pYdy-Ybz8uDOqXVo-31" value="1/4" style="edgeLabel;html=1;align=center;verticalAlign=middle;resizable=0;points=[];fontFamily=Times New Roman;" vertex="1" connectable="0" parent="8Ze-pYdy-Ybz8uDOqXVo-26">
          <mxGeometry x="-0.2457" y="-9" relative="1" as="geometry">
            <mxPoint as="offset" />
          </mxGeometry>
        </mxCell>
        <mxCell id="8Ze-pYdy-Ybz8uDOqXVo-27" style="edgeStyle=orthogonalEdgeStyle;curved=1;rounded=0;orthogonalLoop=1;jettySize=auto;html=1;entryX=0;entryY=0.5;entryDx=0;entryDy=0;fontFamily=Times New Roman;" edge="1" parent="1" source="8Ze-pYdy-Ybz8uDOqXVo-8" target="8Ze-pYdy-Ybz8uDOqXVo-9">
          <mxGeometry relative="1" as="geometry" />
        </mxCell>
        <mxCell id="8Ze-pYdy-Ybz8uDOqXVo-33" value="1/4" style="edgeLabel;html=1;align=center;verticalAlign=middle;resizable=0;points=[];fontFamily=Times New Roman;" vertex="1" connectable="0" parent="8Ze-pYdy-Ybz8uDOqXVo-27">
          <mxGeometry x="0.0782" y="2" relative="1" as="geometry">
            <mxPoint as="offset" />
          </mxGeometry>
        </mxCell>
        <mxCell id="8Ze-pYdy-Ybz8uDOqXVo-8" value="&lt;font style=&quot;font-size: 18px;&quot;&gt;2&lt;/font&gt;" style="ellipse;whiteSpace=wrap;html=1;aspect=fixed;fontFamily=Times New Roman;" vertex="1" parent="1">
          <mxGeometry x="240" y="400" width="40" height="40" as="geometry" />
        </mxCell>
        <mxCell id="8Ze-pYdy-Ybz8uDOqXVo-28" style="edgeStyle=none;rounded=0;orthogonalLoop=1;jettySize=auto;html=1;exitX=0;exitY=0;exitDx=0;exitDy=0;fontFamily=Times New Roman;" edge="1" parent="1" source="8Ze-pYdy-Ybz8uDOqXVo-9" target="8Ze-pYdy-Ybz8uDOqXVo-3">
          <mxGeometry relative="1" as="geometry" />
        </mxCell>
        <mxCell id="8Ze-pYdy-Ybz8uDOqXVo-34" value="1/2" style="edgeLabel;html=1;align=center;verticalAlign=middle;resizable=0;points=[];fontFamily=Times New Roman;" vertex="1" connectable="0" parent="8Ze-pYdy-Ybz8uDOqXVo-28">
          <mxGeometry x="-0.0412" y="1" relative="1" as="geometry">
            <mxPoint as="offset" />
          </mxGeometry>
        </mxCell>
        <mxCell id="8Ze-pYdy-Ybz8uDOqXVo-9" value="&lt;font style=&quot;font-size: 18px;&quot;&gt;3&lt;/font&gt;" style="ellipse;whiteSpace=wrap;html=1;aspect=fixed;fontFamily=Times New Roman;" vertex="1" parent="1">
          <mxGeometry x="400" y="400" width="40" height="40" as="geometry" />
        </mxCell>
        <mxCell id="8Ze-pYdy-Ybz8uDOqXVo-18" style="edgeStyle=orthogonalEdgeStyle;curved=1;rounded=0;orthogonalLoop=1;jettySize=auto;html=1;entryX=0.5;entryY=1;entryDx=0;entryDy=0;exitX=0;exitY=0.5;exitDx=0;exitDy=0;fontFamily=Times New Roman;" edge="1" parent="1" source="8Ze-pYdy-Ybz8uDOqXVo-8" target="8Ze-pYdy-Ybz8uDOqXVo-8">
          <mxGeometry relative="1" as="geometry">
            <Array as="points">
              <mxPoint x="220" y="420" />
              <mxPoint x="220" y="460" />
              <mxPoint x="260" y="460" />
            </Array>
          </mxGeometry>
        </mxCell>
        <mxCell id="8Ze-pYdy-Ybz8uDOqXVo-32" value="1/2" style="edgeLabel;html=1;align=center;verticalAlign=middle;resizable=0;points=[];fontFamily=Times New Roman;" vertex="1" connectable="0" parent="8Ze-pYdy-Ybz8uDOqXVo-18">
          <mxGeometry x="-0.0862" y="1" relative="1" as="geometry">
            <mxPoint as="offset" />
          </mxGeometry>
        </mxCell>
        <mxCell id="8Ze-pYdy-Ybz8uDOqXVo-22" style="edgeStyle=orthogonalEdgeStyle;curved=1;rounded=0;orthogonalLoop=1;jettySize=auto;html=1;exitX=0;exitY=0;exitDx=0;exitDy=0;entryX=1;entryY=0;entryDx=0;entryDy=0;fontFamily=Times New Roman;" edge="1" parent="1" source="8Ze-pYdy-Ybz8uDOqXVo-3" target="8Ze-pYdy-Ybz8uDOqXVo-3">
          <mxGeometry relative="1" as="geometry">
            <Array as="points">
              <mxPoint x="326" y="250" />
              <mxPoint x="354" y="250" />
            </Array>
          </mxGeometry>
        </mxCell>
        <mxCell id="8Ze-pYdy-Ybz8uDOqXVo-29" value="1/4" style="edgeLabel;html=1;align=center;verticalAlign=middle;resizable=0;points=[];fontFamily=Times New Roman;" vertex="1" connectable="0" parent="8Ze-pYdy-Ybz8uDOqXVo-22">
          <mxGeometry x="0.0249" y="2" relative="1" as="geometry">
            <mxPoint as="offset" />
          </mxGeometry>
        </mxCell>
        <mxCell id="8Ze-pYdy-Ybz8uDOqXVo-24" style="edgeStyle=orthogonalEdgeStyle;curved=1;rounded=0;orthogonalLoop=1;jettySize=auto;html=1;exitX=1;exitY=0.5;exitDx=0;exitDy=0;entryX=0.5;entryY=1;entryDx=0;entryDy=0;fontFamily=Times New Roman;" edge="1" parent="1" source="8Ze-pYdy-Ybz8uDOqXVo-9" target="8Ze-pYdy-Ybz8uDOqXVo-9">
          <mxGeometry relative="1" as="geometry">
            <Array as="points">
              <mxPoint x="460" y="420" />
              <mxPoint x="460" y="460" />
              <mxPoint x="420" y="460" />
            </Array>
          </mxGeometry>
        </mxCell>
        <mxCell id="8Ze-pYdy-Ybz8uDOqXVo-35" value="1/2" style="edgeLabel;html=1;align=center;verticalAlign=middle;resizable=0;points=[];fontFamily=Times New Roman;" vertex="1" connectable="0" parent="8Ze-pYdy-Ybz8uDOqXVo-24">
          <mxGeometry x="-0.0747" y="-4" relative="1" as="geometry">
            <mxPoint as="offset" />
          </mxGeometry>
        </mxCell>
      </root>
    </mxGraphModel>
  </diagram>
  <diagram id="wRE3ovOXKC8tncjrah8x" name="Página-12">
    <mxGraphModel dx="864" dy="508" grid="1" gridSize="10" guides="1" tooltips="1" connect="1" arrows="1" fold="1" page="1" pageScale="1" pageWidth="850" pageHeight="1100" math="0" shadow="0">
      <root>
        <mxCell id="0" />
        <mxCell id="1" parent="0" />
        <mxCell id="FHP9k_H31ERtErTyfVAN-6" style="edgeStyle=none;rounded=0;orthogonalLoop=1;jettySize=auto;html=1;exitX=1;exitY=0;exitDx=0;exitDy=0;entryX=0;entryY=0.5;entryDx=0;entryDy=0;fontFamily=Times New Roman;" parent="1" source="FHP9k_H31ERtErTyfVAN-1" target="FHP9k_H31ERtErTyfVAN-3" edge="1">
          <mxGeometry relative="1" as="geometry" />
        </mxCell>
        <mxCell id="FHP9k_H31ERtErTyfVAN-12" value="1/3" style="edgeLabel;html=1;align=center;verticalAlign=middle;resizable=0;points=[];fontFamily=Times New Roman;" parent="FHP9k_H31ERtErTyfVAN-6" vertex="1" connectable="0">
          <mxGeometry x="-0.0019" y="-2" relative="1" as="geometry">
            <mxPoint as="offset" />
          </mxGeometry>
        </mxCell>
        <mxCell id="FHP9k_H31ERtErTyfVAN-7" style="edgeStyle=none;rounded=0;orthogonalLoop=1;jettySize=auto;html=1;exitX=1;exitY=1;exitDx=0;exitDy=0;entryX=0;entryY=0.5;entryDx=0;entryDy=0;fontFamily=Times New Roman;" parent="1" source="FHP9k_H31ERtErTyfVAN-1" target="FHP9k_H31ERtErTyfVAN-4" edge="1">
          <mxGeometry relative="1" as="geometry" />
        </mxCell>
        <mxCell id="FHP9k_H31ERtErTyfVAN-11" value="2/3" style="edgeLabel;html=1;align=center;verticalAlign=middle;resizable=0;points=[];fontFamily=Times New Roman;" parent="FHP9k_H31ERtErTyfVAN-7" vertex="1" connectable="0">
          <mxGeometry x="-0.0073" y="-1" relative="1" as="geometry">
            <mxPoint x="-1" as="offset" />
          </mxGeometry>
        </mxCell>
        <mxCell id="FHP9k_H31ERtErTyfVAN-1" value="&lt;font style=&quot;font-size: 18px;&quot;&gt;1&lt;/font&gt;" style="ellipse;whiteSpace=wrap;html=1;aspect=fixed;fontFamily=Times New Roman;" parent="1" vertex="1">
          <mxGeometry x="320" y="200" width="40" height="40" as="geometry" />
        </mxCell>
        <mxCell id="FHP9k_H31ERtErTyfVAN-8" style="edgeStyle=none;rounded=0;orthogonalLoop=1;jettySize=auto;html=1;fontFamily=Times New Roman;" parent="1" source="FHP9k_H31ERtErTyfVAN-2" target="FHP9k_H31ERtErTyfVAN-1" edge="1">
          <mxGeometry relative="1" as="geometry" />
        </mxCell>
        <mxCell id="FHP9k_H31ERtErTyfVAN-13" value="1" style="edgeLabel;html=1;align=center;verticalAlign=middle;resizable=0;points=[];fontFamily=Times New Roman;" parent="FHP9k_H31ERtErTyfVAN-8" vertex="1" connectable="0">
          <mxGeometry x="-0.3667" y="4" relative="1" as="geometry">
            <mxPoint x="-5" y="-4" as="offset" />
          </mxGeometry>
        </mxCell>
        <mxCell id="FHP9k_H31ERtErTyfVAN-2" value="&lt;font style=&quot;font-size: 18px;&quot;&gt;2&lt;/font&gt;" style="ellipse;whiteSpace=wrap;html=1;aspect=fixed;fontFamily=Times New Roman;" parent="1" vertex="1">
          <mxGeometry x="440" y="200" width="40" height="40" as="geometry" />
        </mxCell>
        <mxCell id="FHP9k_H31ERtErTyfVAN-9" style="edgeStyle=none;rounded=0;orthogonalLoop=1;jettySize=auto;html=1;fontFamily=Times New Roman;" parent="1" source="FHP9k_H31ERtErTyfVAN-3" target="FHP9k_H31ERtErTyfVAN-2" edge="1">
          <mxGeometry relative="1" as="geometry" />
        </mxCell>
        <mxCell id="FHP9k_H31ERtErTyfVAN-15" value="1" style="edgeLabel;html=1;align=center;verticalAlign=middle;resizable=0;points=[];fontFamily=Times New Roman;" parent="FHP9k_H31ERtErTyfVAN-9" vertex="1" connectable="0">
          <mxGeometry x="-0.15" y="2" relative="1" as="geometry">
            <mxPoint x="-2" as="offset" />
          </mxGeometry>
        </mxCell>
        <mxCell id="FHP9k_H31ERtErTyfVAN-3" value="&lt;font style=&quot;font-size: 18px;&quot;&gt;3&lt;/font&gt;" style="ellipse;whiteSpace=wrap;html=1;aspect=fixed;fontFamily=Times New Roman;" parent="1" vertex="1">
          <mxGeometry x="440" y="120" width="40" height="40" as="geometry" />
        </mxCell>
        <mxCell id="FHP9k_H31ERtErTyfVAN-10" style="edgeStyle=none;rounded=0;orthogonalLoop=1;jettySize=auto;html=1;entryX=0.5;entryY=1;entryDx=0;entryDy=0;fontFamily=Times New Roman;" parent="1" source="FHP9k_H31ERtErTyfVAN-4" target="FHP9k_H31ERtErTyfVAN-2" edge="1">
          <mxGeometry relative="1" as="geometry" />
        </mxCell>
        <mxCell id="FHP9k_H31ERtErTyfVAN-14" value="1" style="edgeLabel;html=1;align=center;verticalAlign=middle;resizable=0;points=[];fontFamily=Times New Roman;" parent="FHP9k_H31ERtErTyfVAN-10" vertex="1" connectable="0">
          <mxGeometry y="-4" relative="1" as="geometry">
            <mxPoint x="-4" as="offset" />
          </mxGeometry>
        </mxCell>
        <mxCell id="FHP9k_H31ERtErTyfVAN-4" value="&lt;font style=&quot;font-size: 18px;&quot;&gt;4&lt;/font&gt;" style="ellipse;whiteSpace=wrap;html=1;aspect=fixed;fontFamily=Times New Roman;" parent="1" vertex="1">
          <mxGeometry x="440" y="280" width="40" height="40" as="geometry" />
        </mxCell>
      </root>
    </mxGraphModel>
  </diagram>
  <diagram id="-qqhOaqpyXFqXMVr6JNl" name="Página-13">
    <mxGraphModel dx="665" dy="391" grid="1" gridSize="10" guides="1" tooltips="1" connect="1" arrows="1" fold="1" page="1" pageScale="1" pageWidth="850" pageHeight="1100" math="0" shadow="0">
      <root>
        <mxCell id="0" />
        <mxCell id="1" parent="0" />
        <mxCell id="_kEEqCUFHQeBPg-SeHtE-16" style="rounded=0;orthogonalLoop=1;jettySize=auto;html=1;entryX=0.102;entryY=0.728;entryDx=0;entryDy=0;entryPerimeter=0;exitX=0.929;exitY=0.737;exitDx=0;exitDy=0;exitPerimeter=0;fontFamily=Times New Roman;" edge="1" parent="1" source="_kEEqCUFHQeBPg-SeHtE-5" target="_kEEqCUFHQeBPg-SeHtE-11">
          <mxGeometry relative="1" as="geometry">
            <mxPoint x="359.9999999999999" y="270" as="sourcePoint" />
            <mxPoint x="560" y="270" as="targetPoint" />
          </mxGeometry>
        </mxCell>
        <mxCell id="_kEEqCUFHQeBPg-SeHtE-25" value="1" style="edgeLabel;html=1;align=center;verticalAlign=middle;resizable=0;points=[];fontFamily=Times New Roman;" vertex="1" connectable="0" parent="_kEEqCUFHQeBPg-SeHtE-16">
          <mxGeometry x="-0.7339" relative="1" as="geometry">
            <mxPoint as="offset" />
          </mxGeometry>
        </mxCell>
        <mxCell id="_kEEqCUFHQeBPg-SeHtE-5" value="&lt;font style=&quot;font-size: 18px;&quot;&gt;1&lt;/font&gt;" style="ellipse;whiteSpace=wrap;html=1;aspect=fixed;fontFamily=Times New Roman;" vertex="1" parent="1">
          <mxGeometry x="320" y="240" width="40" height="40" as="geometry" />
        </mxCell>
        <mxCell id="_kEEqCUFHQeBPg-SeHtE-17" style="rounded=0;orthogonalLoop=1;jettySize=auto;html=1;fontFamily=Times New Roman;" edge="1" parent="1" source="_kEEqCUFHQeBPg-SeHtE-8" target="_kEEqCUFHQeBPg-SeHtE-5">
          <mxGeometry relative="1" as="geometry" />
        </mxCell>
        <mxCell id="_kEEqCUFHQeBPg-SeHtE-26" value="1" style="edgeLabel;html=1;align=center;verticalAlign=middle;resizable=0;points=[];fontFamily=Times New Roman;" vertex="1" connectable="0" parent="_kEEqCUFHQeBPg-SeHtE-17">
          <mxGeometry x="-0.0952" y="-2" relative="1" as="geometry">
            <mxPoint as="offset" />
          </mxGeometry>
        </mxCell>
        <mxCell id="_kEEqCUFHQeBPg-SeHtE-8" value="&lt;font style=&quot;font-size: 18px;&quot;&gt;2&lt;/font&gt;" style="ellipse;whiteSpace=wrap;html=1;aspect=fixed;fontFamily=Times New Roman;" vertex="1" parent="1">
          <mxGeometry x="440" y="80" width="40" height="40" as="geometry" />
        </mxCell>
        <mxCell id="_kEEqCUFHQeBPg-SeHtE-18" style="rounded=0;orthogonalLoop=1;jettySize=auto;html=1;fontFamily=Times New Roman;" edge="1" parent="1" source="_kEEqCUFHQeBPg-SeHtE-11" target="_kEEqCUFHQeBPg-SeHtE-5">
          <mxGeometry relative="1" as="geometry">
            <Array as="points" />
          </mxGeometry>
        </mxCell>
        <mxCell id="_kEEqCUFHQeBPg-SeHtE-24" value="1/2" style="edgeLabel;html=1;align=center;verticalAlign=middle;resizable=0;points=[];fontFamily=Times New Roman;" vertex="1" connectable="0" parent="_kEEqCUFHQeBPg-SeHtE-18">
          <mxGeometry x="-0.0264" y="-2" relative="1" as="geometry">
            <mxPoint x="67" y="2" as="offset" />
          </mxGeometry>
        </mxCell>
        <mxCell id="_kEEqCUFHQeBPg-SeHtE-19" style="rounded=0;orthogonalLoop=1;jettySize=auto;html=1;fontFamily=Times New Roman;" edge="1" parent="1" source="_kEEqCUFHQeBPg-SeHtE-11" target="_kEEqCUFHQeBPg-SeHtE-8">
          <mxGeometry relative="1" as="geometry" />
        </mxCell>
        <mxCell id="_kEEqCUFHQeBPg-SeHtE-27" value="1/2" style="edgeLabel;html=1;align=center;verticalAlign=middle;resizable=0;points=[];fontFamily=Times New Roman;" vertex="1" connectable="0" parent="_kEEqCUFHQeBPg-SeHtE-19">
          <mxGeometry x="-0.5624" y="-1" relative="1" as="geometry">
            <mxPoint as="offset" />
          </mxGeometry>
        </mxCell>
        <mxCell id="_kEEqCUFHQeBPg-SeHtE-11" value="&lt;font style=&quot;font-size: 18px;&quot;&gt;3&lt;/font&gt;" style="ellipse;whiteSpace=wrap;html=1;aspect=fixed;fontFamily=Times New Roman;" vertex="1" parent="1">
          <mxGeometry x="560" y="240" width="40" height="40" as="geometry" />
        </mxCell>
        <mxCell id="_kEEqCUFHQeBPg-SeHtE-21" style="edgeStyle=none;rounded=0;orthogonalLoop=1;jettySize=auto;html=1;fontFamily=Times New Roman;" edge="1" parent="1" source="_kEEqCUFHQeBPg-SeHtE-14" target="_kEEqCUFHQeBPg-SeHtE-11">
          <mxGeometry relative="1" as="geometry" />
        </mxCell>
        <mxCell id="_kEEqCUFHQeBPg-SeHtE-28" value="1/3" style="edgeLabel;html=1;align=center;verticalAlign=middle;resizable=0;points=[];fontFamily=Times New Roman;" vertex="1" connectable="0" parent="_kEEqCUFHQeBPg-SeHtE-21">
          <mxGeometry x="-0.5219" relative="1" as="geometry">
            <mxPoint as="offset" />
          </mxGeometry>
        </mxCell>
        <mxCell id="_kEEqCUFHQeBPg-SeHtE-22" style="edgeStyle=none;rounded=0;orthogonalLoop=1;jettySize=auto;html=1;fontFamily=Times New Roman;" edge="1" parent="1" source="_kEEqCUFHQeBPg-SeHtE-14" target="_kEEqCUFHQeBPg-SeHtE-5">
          <mxGeometry relative="1" as="geometry" />
        </mxCell>
        <mxCell id="_kEEqCUFHQeBPg-SeHtE-29" value="1/3" style="edgeLabel;html=1;align=center;verticalAlign=middle;resizable=0;points=[];fontFamily=Times New Roman;" vertex="1" connectable="0" parent="_kEEqCUFHQeBPg-SeHtE-22">
          <mxGeometry x="-0.6466" y="-1" relative="1" as="geometry">
            <mxPoint as="offset" />
          </mxGeometry>
        </mxCell>
        <mxCell id="_kEEqCUFHQeBPg-SeHtE-23" style="edgeStyle=none;rounded=0;orthogonalLoop=1;jettySize=auto;html=1;fontFamily=Times New Roman;" edge="1" parent="1" source="_kEEqCUFHQeBPg-SeHtE-14" target="_kEEqCUFHQeBPg-SeHtE-8">
          <mxGeometry relative="1" as="geometry" />
        </mxCell>
        <mxCell id="_kEEqCUFHQeBPg-SeHtE-30" value="1/3" style="edgeLabel;html=1;align=center;verticalAlign=middle;resizable=0;points=[];fontFamily=Times New Roman;" vertex="1" connectable="0" parent="_kEEqCUFHQeBPg-SeHtE-23">
          <mxGeometry x="-0.4197" y="-1" relative="1" as="geometry">
            <mxPoint as="offset" />
          </mxGeometry>
        </mxCell>
        <mxCell id="_kEEqCUFHQeBPg-SeHtE-14" value="&lt;font style=&quot;font-size: 18px;&quot;&gt;4&lt;/font&gt;" style="ellipse;whiteSpace=wrap;html=1;aspect=fixed;fontFamily=Times New Roman;" vertex="1" parent="1">
          <mxGeometry x="440" y="180" width="40" height="40" as="geometry" />
        </mxCell>
      </root>
    </mxGraphModel>
  </diagram>
</mxfile>
